<?xml version="1.0" encoding="UTF-8" standalone="no"?>
<!-- Created with Inkscape (http://www.inkscape.org/) -->

<svg
   xmlns:dc="http://purl.org/dc/elements/1.1/"
   xmlns:cc="http://creativecommons.org/ns#"
   xmlns:rdf="http://www.w3.org/1999/02/22-rdf-syntax-ns#"
   xmlns:svg="http://www.w3.org/2000/svg"
   xmlns="http://www.w3.org/2000/svg"
   xmlns:sodipodi="http://sodipodi.sourceforge.net/DTD/sodipodi-0.dtd"
   xmlns:inkscape="http://www.inkscape.org/namespaces/inkscape"
   id="svg2"
   version="1.1"
   inkscape:version="0.91 r13725"
   xml:space="preserve"
   width="500"
   height="200"
   viewBox="0 0 499.99998 200"
   sodipodi:docname="ambiguous.svg"><metadata
     id="metadata8"><rdf:RDF><cc:Work
         rdf:about=""><dc:format>image/svg+xml</dc:format><dc:type
           rdf:resource="http://purl.org/dc/dcmitype/StillImage" /><dc:title></dc:title></cc:Work></rdf:RDF></metadata><defs
     id="defs6"><clipPath
       clipPathUnits="userSpaceOnUse"
       id="clipPath16"><path
         d="m 0,595.275 841.89,0 L 841.89,0 0,0 0,595.275 Z"
         id="path18"
         inkscape:connector-curvature="0" /></clipPath><clipPath
       clipPathUnits="userSpaceOnUse"
       id="clipPath138"><path
         d="m 290.118,321.389 260.888,0 0,-197.5 -260.888,0 0,197.5 z"
         id="path140"
         inkscape:connector-curvature="0" /></clipPath><linearGradient
       x1="0"
       y1="0"
       x2="1"
       y2="0"
       gradientUnits="userSpaceOnUse"
       gradientTransform="matrix(260.66611,-200.00023,-200.00023,-260.66611,295.34863,318.71045)"
       spreadMethod="pad"
       id="linearGradient146"><stop
         style="stop-opacity:1;stop-color:#ffffff"
         offset="0"
         id="stop148" /><stop
         style="stop-opacity:1;stop-color:#231f20"
         offset="1"
         id="stop150" /></linearGradient><clipPath
       clipPathUnits="userSpaceOnUse"
       id="clipPath188"><path
         d="m 327.29,485.137 190.669,0 0,-125 -190.669,0 0,125 z"
         id="path190"
         inkscape:connector-curvature="0" /></clipPath><linearGradient
       x1="0"
       y1="0"
       x2="1"
       y2="0"
       gradientUnits="userSpaceOnUse"
       gradientTransform="matrix(-163.99989,122.00018,122.00018,163.99989,519.92187,353.24805)"
       spreadMethod="pad"
       id="linearGradient196"><stop
         style="stop-opacity:1;stop-color:#ffffff"
         offset="0"
         id="stop198" /><stop
         style="stop-opacity:1;stop-color:#231f20"
         offset="1"
         id="stop200" /></linearGradient></defs><sodipodi:namedview
     pagecolor="#ffffff"
     bordercolor="#000000"
     borderopacity="1"
     objecttolerance="10"
     gridtolerance="10"
     guidetolerance="10"
     inkscape:pageopacity="0"
     inkscape:pageshadow="2"
     inkscape:window-width="1304"
     inkscape:window-height="745"
     id="namedview4"
     showgrid="false"
     inkscape:zoom="0.8869386"
     inkscape:cx="404.22522"
     inkscape:cy="96.455938"
     inkscape:window-x="54"
     inkscape:window-y="-8"
     inkscape:window-maximized="1"
     inkscape:current-layer="g10"
     inkscape:showpageshadow="false"
     borderlayer="true" /><g
     id="g10"
     inkscape:groupmode="layer"
     inkscape:label="Floppy disk"
     transform="matrix(1.25,0,0,-1.25,0,200)"><g
       transform="matrix(6.135957,0,0,-6.135957,-742.77485,-399.92463)"
       style="font-style:normal;font-variant:normal;font-weight:normal;font-stretch:normal;font-size:32px;line-height:125%;font-family:'8514fix';-inkscape-font-specification:'8514fix';text-align:center;letter-spacing:0px;word-spacing:0px;text-anchor:middle;fill:#000000;fill-opacity:1;stroke:none;stroke-width:1px;stroke-linecap:butt;stroke-linejoin:miter;stroke-opacity:1"
       id="text4161"><path
         d="m 175.54614,-71.604896 c -0.0213,-0.213333 -0.17866,-0.782645 -0.17866,-0.974645 l 0,-0.576 c 0,-1.152 0.16,-2.090667 0.48,-2.816 0.34133,-0.725333 0.896,-1.312 1.664,-1.76 0.42667,-0.256 0.84267,-0.458667 1.248,-0.608 0.40533,-0.170667 0.75733,-0.341333 1.056,-0.512 0.32,-0.192 0.576,-0.405333 0.768,-0.64 0.192,-0.256 0.288,-0.586667 0.288,-0.992 0,-0.554667 -0.192,-1.013333 -0.576,-1.376 -0.384,-0.384 -0.928,-0.576 -1.632,-0.576 -0.768,0 -1.36533,0.224 -1.792,0.672 -0.40533,0.448 -0.608,1.109333 -0.608,1.984 l 0,0.096 -6.72,0 c 0.128,-2.474667 0.98133,-4.373333 2.56,-5.696 1.57867,-1.344 3.79733,-2.016 6.656,-2.016 1.36533,0 2.592,0.170667 3.68,0.512 1.10933,0.32 2.048,0.778667 2.816,1.376 0.768,0.597333 1.35467,1.312 1.76,2.144 0.40533,0.810667 0.608,1.696 0.608,2.656 0,1.429333 -0.39467,2.581333 -1.184,3.456 -0.49067,0.554667 -1.07733,1.002667 -1.76,1.344 -0.66133,0.32 -1.33333,0.682667 -2.016,1.088 -0.256,0.149333 -0.46933,0.288 -0.64,0.416 -0.17067,0.128 -0.30933,0.277333 -0.416,0.448 -0.10667,0.170667 -0.18133,0.362667 -0.224,0.576 -0.0427,0.213333 -0.064,0.48 -0.064,0.8 l 0,0.32 c 0.0213,0.08533 0.032,0.547978 0.032,0.654645 -2.73428,-1.515762 -4.28738,-0.676263 -5.80534,0 z"
         style="font-style:normal;font-variant:normal;font-weight:900;font-stretch:normal;font-family:'Swiss 721';-inkscape-font-specification:'Swiss 721 Heavy'"
         id="path4166"
         inkscape:connector-curvature="0"
         sodipodi:nodetypes="csscccccscscscccscscscccssssccc" /></g><ellipse
       style="opacity:1;fill:#000000;fill-opacity:1;stroke:none;stroke-width:2;stroke-linecap:round;stroke-linejoin:round;stroke-miterlimit:4;stroke-dasharray:none;stroke-dashoffset:0;stroke-opacity:1"
       id="path4168"
       cx="352.58514"
       cy="-15.495914"
       transform="scale(1,-1)"
       rx="26.096754"
       ry="23.172117" /><ellipse
       style="opacity:1;fill:#e6e6e6;fill-opacity:1;stroke:none;stroke-width:2;stroke-linecap:round;stroke-linejoin:round;stroke-miterlimit:4;stroke-dasharray:none;stroke-dashoffset:0;stroke-opacity:1"
       id="path4174"
       cx="315.64435"
       cy="-181.56395"
       transform="matrix(0.87707179,-0.48035932,-0.48035932,-0.87707179,0,0)"
       rx="9.5110512"
       ry="11.248601" /><text
       xml:space="preserve"
       style="font-style:normal;font-variant:normal;font-weight:bold;font-stretch:normal;font-size:20.72966194px;line-height:125%;font-family:Sans;-inkscape-font-specification:'Sans Bold';text-align:center;letter-spacing:0px;word-spacing:0px;text-anchor:middle;fill:#000000;fill-opacity:1;stroke:none;stroke-width:1px;stroke-linecap:butt;stroke-linejoin:miter;stroke-opacity:1"
       x="343.63889"
       y="-159.28575"
       id="text4170"
       sodipodi:linespacing="125%"
       transform="matrix(0.80537911,-0.4410943,-0.52311962,-0.95514636,0,0)"><tspan
         sodipodi:role="line"
         id="tspan4172"
         x="343.63889"
         y="-159.28575">8</tspan></text>
<g
       id="g4176"
       style="font-style:normal;font-variant:normal;font-weight:normal;font-stretch:normal;font-size:32px;line-height:125%;font-family:'8514fix';-inkscape-font-specification:'8514fix';text-align:center;letter-spacing:0px;word-spacing:0px;text-anchor:middle;fill:#000000;fill-opacity:1;stroke:none;stroke-width:1px;stroke-linecap:butt;stroke-linejoin:miter;stroke-opacity:1"
       transform="matrix(6.135957,0,0,-6.135957,-726.12693,-327.93358)" /></g></svg>