<?xml version="1.0" encoding="UTF-8" standalone="no"?>
<!-- Created with Inkscape (http://www.inkscape.org/) -->

<svg
   xmlns:dc="http://purl.org/dc/elements/1.1/"
   xmlns:cc="http://creativecommons.org/ns#"
   xmlns:rdf="http://www.w3.org/1999/02/22-rdf-syntax-ns#"
   xmlns:svg="http://www.w3.org/2000/svg"
   xmlns="http://www.w3.org/2000/svg"
   xmlns:sodipodi="http://sodipodi.sourceforge.net/DTD/sodipodi-0.dtd"
   xmlns:inkscape="http://www.inkscape.org/namespaces/inkscape"
   id="svg2"
   version="1.1"
   inkscape:version="0.91 r13725"
   xml:space="preserve"
   width="500"
   height="200"
   viewBox="0 0 499.99998 200"
   sodipodi:docname="boing-ball.svg"><metadata
     id="metadata8"><rdf:RDF><cc:Work
         rdf:about=""><dc:format>image/svg+xml</dc:format><dc:type
           rdf:resource="http://purl.org/dc/dcmitype/StillImage" /><dc:title></dc:title></cc:Work></rdf:RDF></metadata><defs
     id="defs6"><clipPath
       clipPathUnits="userSpaceOnUse"
       id="clipPath16"><path
         d="m 0,595.275 841.89,0 L 841.89,0 0,0 0,595.275 Z"
         id="path18"
         inkscape:connector-curvature="0" /></clipPath><clipPath
       clipPathUnits="userSpaceOnUse"
       id="clipPath138"><path
         d="m 290.118,321.389 260.888,0 0,-197.5 -260.888,0 0,197.5 z"
         id="path140"
         inkscape:connector-curvature="0" /></clipPath><linearGradient
       x1="0"
       y1="0"
       x2="1"
       y2="0"
       gradientUnits="userSpaceOnUse"
       gradientTransform="matrix(260.66611,-200.00023,-200.00023,-260.66611,295.34863,318.71045)"
       spreadMethod="pad"
       id="linearGradient146"><stop
         style="stop-opacity:1;stop-color:#ffffff"
         offset="0"
         id="stop148" /><stop
         style="stop-opacity:1;stop-color:#231f20"
         offset="1"
         id="stop150" /></linearGradient><clipPath
       clipPathUnits="userSpaceOnUse"
       id="clipPath188"><path
         d="m 327.29,485.137 190.669,0 0,-125 -190.669,0 0,125 z"
         id="path190"
         inkscape:connector-curvature="0" /></clipPath><linearGradient
       x1="0"
       y1="0"
       x2="1"
       y2="0"
       gradientUnits="userSpaceOnUse"
       gradientTransform="matrix(-163.99989,122.00018,122.00018,163.99989,519.92187,353.24805)"
       spreadMethod="pad"
       id="linearGradient196"><stop
         style="stop-opacity:1;stop-color:#ffffff"
         offset="0"
         id="stop198" /><stop
         style="stop-opacity:1;stop-color:#231f20"
         offset="1"
         id="stop200" /></linearGradient><style
       type="text/css"
       id="style6"><![CDATA[
    .fil3 {fill:none}
    .fil8 {fill:#714B3C}
    .fil2 {fill:#947451}
    .fil9 {fill:#A58869}
    .fil11 {fill:#A98966}
    .fil4 {fill:#A98C6D}
    .fil0 {fill:#B3926F}
    .fil5 {fill:#C09F7D}
    .fil1 {fill:#D0B08E}
    .fil6 {fill:#DDC5AC}
    .fil7 {fill:white}
    .fil12 {fill:#675341;fill-rule:nonzero}
    .fil10 {fill:#9B7B58;fill-rule:nonzero}
   ]]></style><radialGradient
       r="83.225"
       gradientTransform="matrix(1.07,1.0789,-0.74269,0.7556,57.014,-49.651)"
       cx="87.2"
       cy="86.877"
       gradientUnits="userSpaceOnUse"
       id="radialGradient4012"><stop
         offset="0"
         stop-color="#fff"
         id="stop4008" /><stop
         offset="1"
         stop-color="#a2a2a2"
         id="stop4010" /></radialGradient></defs><sodipodi:namedview
     pagecolor="#ffffff"
     bordercolor="#ff0000"
     borderopacity="1"
     objecttolerance="10"
     gridtolerance="10"
     guidetolerance="10"
     inkscape:pageopacity="0"
     inkscape:pageshadow="2"
     inkscape:window-width="1304"
     inkscape:window-height="745"
     id="namedview4"
     showgrid="false"
     inkscape:zoom="0.8869386"
     inkscape:cx="479.6951"
     inkscape:cy="52.613653"
     inkscape:window-x="54"
     inkscape:window-y="-8"
     inkscape:window-maximized="1"
     inkscape:current-layer="g10"
     inkscape:showpageshadow="false"
     borderlayer="true" /><g
     id="g10"
     inkscape:groupmode="layer"
     inkscape:label="Floppy disk"
     transform="matrix(1.25,0,0,-1.25,0,200)"><g
       id="g4817"
       transform="matrix(0.56534066,0,0,0.56534066,183.9282,46.469862)"><path
         sodipodi:nodetypes="cccccccccccc"
         inkscape:connector-curvature="0"
         id="polygon31"
         d="m 369.80551,32.349727 -1.9655,-9.380052 -3.21672,4.89419 -2.25339,-8.492944 -2.71288,5.685917 -2.46932,-8.420971 -0.84155,34.859236 22.52821,13.027491 0.12176,-33.396327 -3.2887,4.17444 -2.25338,-8.42097 z"
         style="clip-rule:evenodd;fill:#ffffff;fill-opacity:1;fill-rule:evenodd;image-rendering:optimizeQuality;shape-rendering:geometricPrecision;text-rendering:geometricPrecision" /><line
         style="clip-rule:evenodd;fill:none;fill-rule:evenodd;image-rendering:optimizeQuality;shape-rendering:geometricPrecision;text-rendering:geometricPrecision"
         id="line15"
         y2="112.58904"
         class="fil3"
         x2="272.19189"
         y1="57.384151"
         x1="367.77481" /><line
         style="clip-rule:evenodd;fill:none;fill-rule:evenodd;image-rendering:optimizeQuality;shape-rendering:geometricPrecision;text-rendering:geometricPrecision"
         id="line17"
         y2="54.649086"
         class="fil3"
         x2="368.06271"
         y1="57.384151"
         x1="367.77481" /><path
         sodipodi:nodetypes="ccccc"
         inkscape:connector-curvature="0"
         id="polygon23"
         d="M 245.50138,117.2164 268.96281,130.19777 379.56336,64.178096 356.00165,51.495105 Z"
         style="clip-rule:evenodd;fill:#ffffff;fill-rule:evenodd;image-rendering:optimizeQuality;shape-rendering:geometricPrecision;text-rendering:geometricPrecision" /><g
         id="layer1"
         transform="matrix(0.90689827,0,0,-0.90689827,-212.26533,440.60848)"><path
           style="opacity:0.3;fill:#ffffff"
           inkscape:connector-curvature="0"
           id="path4016"
           d="m 201.97,141.38 a 82.915,83.978026 0 1 1 -165.83,0 82.915,83.978026 0 1 1 165.83,0 z"
           transform="matrix(1.6282,0,0,1.6076,364.94,243.64)" /><g
           style="stroke-width:1.00750005"
           id="g3952"
           transform="matrix(0.99259,0,0,0.99593,312.55,-64.375)"><g
             style="stroke-width:1.00750005"
             id="g3972"><path
               style="fill:#ff0000"
               inkscape:connector-curvature="0"
               id="path3132"
               d="m 232.23,671.86 -4.488,-0.64987 3.9893,-0.86367 3.9893,-0.86368 -8.8186,-1.8927 c -8.2843,-1.7781 -8.8937,-1.7899 -10.059,-0.19585 -1.1607,1.5876 -1.6547,1.559 -7.6711,-0.44339 -3.5368,-1.1771 -7.9861,-3.4104 -9.8874,-4.9627 -2.9931,-2.4437 -12.932,-6.754 -12.932,-5.6084 0,0.22348 1.2342,1.076 2.7427,1.8945 1.5085,0.81848 2.2845,1.5061 1.7245,1.5281 -1.2271,0.0482 -16.435,-8.7605 -16.435,-9.5194 0,-0.29328 0.561,-0.20266 1.2467,0.20139 0.68567,0.40405 -2.1958,-2.8936 -6.4032,-7.3282 -4.2074,-4.4345 -9.6604,-11.498 -12.118,-15.696 -4.2491,-7.2598 -4.8208,-7.8027 -11.679,-11.09 l -7.211,-3.4563 1.7652,2.7664 c 2.4938,3.9082 8.0929,10.97 12.87,16.232 l 4.0746,4.4887 -5.308,-4.9874 c -7.7208,-7.2544 -18.799,-22.387 -19.716,-26.932 -0.59352,-2.9406 -6.2379,-13.297 -6.9141,-12.686 -0.43626,0.39407 -0.49064,0.18825 -0.12086,-0.45737 0.36978,-0.64563 -0.45452,-4.6264 -1.8318,-8.8462 -1.3772,-4.2198 -3.0243,-10.649 -3.6601,-14.287 -0.63578,-3.6381 -1.839,-7.1716 -2.6739,-7.8521 -4.1145,-3.3539 -4.1749,-31.712 -0.1103,-51.772 0.82213,-4.0575 1.3944,-5.0441 2.7362,-4.7169 1.3633,0.33247 2.2744,-1.4031 4.6372,-8.8341 3.1616,-9.9431 10.982,-26.154 16.452,-34.106 2.2618,-3.2874 2.8284,-4.6976 1.7159,-4.2706 -0.91347,0.35058 -1.6608,0.24672 -1.6608,-0.23081 0,-1.7774 19.336,-21.128 26.502,-26.523 14.568,-10.966 38.389,-21.632 55.624,-24.906 8.2162,-1.5609 18.261,-2.1799 19.254,-1.1865 0.37387,0.37392 -0.40483,0.68387 -1.7304,0.68878 -4.3535,0.0162 -21.587,6.5836 -29.026,11.062 -6.8766,4.1394 -7.1225,4.4074 -4.3016,4.688 1.6456,0.16374 8.3407,1.1477 14.878,2.1865 l 11.886,1.8888 7.1562,-6.6752 c 3.9359,-3.6713 9.4485,-7.8515 12.25,-9.2894 l 5.094,-2.6142 -4.5782,-0.62762 c -2.518,-0.34517 -5.9742,-0.63447 -7.6803,-0.64287 -2.3696,-0.0117 -2.7489,-0.24359 -1.6061,-0.98221 1.6929,-1.0942 12.954,-1.1683 20.445,-0.13462 l 4.9866,0.68808 -3.4906,0.82175 c -3.3711,0.7936 -3.2175,0.88382 4.488,2.6349 7.2599,1.6498 8.0892,1.6709 9.2057,0.23389 1.1148,-1.4348 1.7965,-1.4068 7.4522,0.30585 3.4238,1.0368 7.584,3.061 9.2449,4.4982 1.6609,1.4372 5.2638,3.347 8.0064,4.2439 4.1218,1.348 4.6509,1.3748 3.0507,0.15433 -1.0648,-0.81207 -1.5042,-1.4765 -0.97648,-1.4765 1.2221,0 16.376,8.846 16.376,9.5593 0,0.29328 -0.56099,0.19219 -1.2467,-0.22465 -0.68566,-0.41684 1.8964,2.6627 5.7379,6.8434 3.8415,4.1807 9.0027,10.957 11.469,15.058 4.2044,6.9904 4.9367,7.6767 11.715,10.978 3.9769,1.937 7.2306,3.3115 7.2306,3.0546 0,-1.1515 -8.8766,-12.309 -15.291,-19.22 l -7.049,-7.595 7.746,7.4811 c 8.6614,8.3652 18.473,20.775 19.128,24.191 0.23612,1.2331 1.0401,2.6909 1.7866,3.2395 0.74651,0.54862 1.4159,1.4464 1.4876,1.995 0.0717,0.54862 1.9389,5.356 4.1493,10.683 2.2104,5.327 5.1705,14.529 6.5778,20.448 1.4074,5.9196 3.2295,11.284 4.0492,11.921 3.5719,2.776 4.2371,33.285 1.0731,49.215 -1.0865,5.4704 -1.594,6.4535 -3.2474,6.2909 -1.631,-0.1604 -2.3679,1.1612 -4.3941,7.8806 -3.2586,10.806 -9.57,24.62 -15.287,33.458 -3.1965,4.9417 -4.2105,7.2317 -3.202,7.2317 0.81174,0 1.4759,0.40479 1.4759,0.89953 0,1.7909 -19.249,21.094 -26.41,26.485 -14.04,10.568 -38.129,21.368 -55.578,24.916 -7.4958,1.5244 -17.651,2.1348 -16.509,0.99231 0.31403,-0.31409 4.7646,-2.018 9.8902,-3.7864 10.125,-3.4932 24.18,-11.146 23.246,-12.657 -0.31945,-0.51693 -2.0129,-0.95399 -3.7633,-0.97124 -1.7504,-0.0172 -8.0875,-0.88094 -14.083,-1.9193 l -10.9,-1.888 -6.7271,6.7281 c -3.6999,3.7005 -8.7806,7.8177 -11.291,9.1494 -2.5099,1.3317 -4.5634,2.7064 -4.5634,3.0549 0,0.34849 2.9861,0.95345 6.6358,1.3444 4.4633,0.47806 6.1776,1.001 5.236,1.5972 -1.5595,0.98751 -12.935,0.96885 -19.85,-0.0325 z" /><path
               style="fill:#ffffff"
               inkscape:connector-curvature="0"
               id="path3130"
               d="m 218.95,652.45 c 1.2787,-5.984 2.1674,-11.038 1.9748,-11.23 -0.19255,-0.19257 -7.714,-2.4126 -16.714,-4.9334 -9.0004,-2.5208 -17.173,-4.8197 -18.161,-5.1087 -1.5357,-0.44909 -1.6969,-0.10784 -1.1089,2.3474 1.4139,5.904 5.5772,15.943 8.5025,20.502 2.6532,4.1352 3.7199,4.9102 8.6872,6.311 3.1145,0.87828 6.7847,1.9957 8.156,2.4833 5.607,1.9933 6.1643,1.3262 8.664,-10.372 z" /><path
               style="fill:#ffffff"
               inkscape:connector-curvature="0"
               id="path3128"
               d="m 319.13,650.77 c 9.1692,-6.2276 19.187,-15.206 26.401,-23.663 l 6.5146,-7.6362 -9.2963,-1.2055 c -13.905,-1.8032 -12.782,-2.1636 -18.444,5.9156 -6.294,8.9808 -14.912,18.485 -22.449,24.759 -5.6237,4.6808 -5.6921,4.798 -3.0357,5.2019 1.4948,0.22723 5.3229,0.48039 8.5071,0.56259 5.2506,0.13555 6.3489,-0.23057 11.802,-3.9342 z" /><path
               style="fill:#ffffff"
               inkscape:connector-curvature="0"
               id="path3126"
               d="m 268.86,638.65 c 3.7543,-5.6233 9.1624,-14.781 12.018,-20.35 l 5.1919,-10.126 -7.7225,-1.683 c -4.2474,-0.92562 -15.801,-3.6228 -25.674,-5.9937 -9.8736,-2.3709 -18.134,-4.1316 -18.357,-3.9127 -0.92752,0.91232 -10.761,42.869 -10.191,43.483 0.34215,0.36876 7.8029,2.2447 16.579,4.1688 8.7765,1.9241 16.855,3.7024 17.952,3.9518 1.0971,0.24943 2.3057,0.50559 2.6858,0.56923 0.38016,0.0636 3.7629,-4.4852 7.5172,-10.108 z" /><path
               style="fill:#ffffff"
               inkscape:connector-curvature="0"
               id="path3124"
               d="m 182.36,628.56 c 0,-0.19943 -0.4886,-2.7804 -1.0858,-5.7355 -0.59717,-2.9551 -1.3826,-13.414 -1.7453,-23.241 l -0.65954,-17.868 -18.949,-5.7388 c -10.422,-3.1563 -19.106,-5.5813 -19.299,-5.3888 -0.19247,0.1925 0.34909,4.7561 1.2035,10.141 1.8996,11.973 5.8106,25.738 9.4166,33.141 l 2.6947,5.5322 13.464,4.7076 c 13.37,4.6746 14.96,5.1479 14.96,4.4512 z" /><path
               style="fill:#ffffff"
               inkscape:connector-curvature="0"
               id="path3122"
               d="m 331.63,610.72 c 4.3102,-6.8089 10.865,-21.484 14.615,-32.724 5.6092,-16.809 7.6161,-14.43 -17.274,-20.479 -11.793,-2.8664 -21.552,-5.107 -21.685,-4.9791 -0.13357,0.12783 -2.0581,6.441 -4.2767,14.029 -2.2186,7.5882 -6.4146,19.802 -9.3244,27.143 -2.9098,7.3402 -5.0245,13.503 -4.6993,13.694 0.32522,0.1917 7.7721,1.7244 16.549,3.4059 8.7765,1.6816 16.855,3.251 17.952,3.4877 4.546,0.98074 5.5328,0.54728 8.1439,-3.5776 z" /><path
               style="fill:#ffffff"
               inkscape:connector-curvature="0"
               id="path3120"
               d="m 239.4,565.67 c 3.737,-15.313 6.5981,-28.038 6.3579,-28.278 -1.017,-1.0171 -54.978,-14.029 -55.557,-13.397 -1.7803,1.9438 -8.8384,45.677 -8.8384,54.764 0,2.5142 -1.9443,1.8394 28.424,9.8647 10.971,2.8992 20.593,5.1851 21.383,5.0798 1.0197,-0.13588 3.4064,-8.2648 8.2308,-28.033 z" /><path
               style="fill:#ffffff"
               inkscape:connector-curvature="0"
               id="path3118"
               d="m 140.82,526.68 c 0.86654,-4.9375 1.8539,-10.349 2.1941,-12.025 l 0.61855,-3.0476 -10.807,-2.5498 c -7.5903,-1.7908 -10.991,-2.2198 -11.426,-1.4411 -3.105,5.5626 -4.9766,49.775 -2.2236,52.529 0.63076,0.63086 5.1188,2.6426 9.9733,4.4706 l 8.8265,3.3236 0.63439,-16.141 c 0.34892,-8.8776 1.3434,-20.181 2.2099,-25.118 z" /><path
               style="fill:#ffffff"
               inkscape:connector-curvature="0"
               id="path3116"
               d="m 377.94,556.52 c 1.4091,-8.6587 1.7786,-33.665 0.58387,-39.507 -0.7144,-3.4928 -1.1475,-3.8334 -8.4642,-6.6554 -4.2412,-1.6358 -8.8261,-3.2532 -10.189,-3.5942 l -2.4772,-0.61996 -0.17474,15.754 c -0.11982,10.801 -0.82834,19.488 -2.2538,27.631 -1.1435,6.5323 -1.8806,12.075 -1.6382,12.318 0.24247,0.24251 5.2959,1.6656 11.23,3.1624 12.496,3.1522 11.373,3.865 13.383,-8.4889 z" /><path
               style="fill:#ffffff"
               inkscape:connector-curvature="0"
               id="path3114"
               d="m 307.25,542.06 c 3.4348,-14.689 7.9858,-49.793 6.4553,-49.793 -0.32386,0 -11.702,-2.9135 -25.285,-6.4744 -13.583,-3.5609 -24.993,-6.1419 -25.356,-5.7355 -1.2464,1.3962 -13.904,55.48 -13.145,56.17 0.99907,0.90859 53.324,13.842 54.609,13.498 0.54566,-0.14607 1.7708,-3.5955 2.7225,-7.6653 z" /><path
               style="fill:#ffffff"
               inkscape:connector-curvature="0"
               id="path3112"
               d="m 192.34,508.23 c 4.4089,-14.642 6.4071,-20.316 11.372,-32.29 2.018,-4.8669 3.4746,-9.0434 3.237,-9.2811 -0.23765,-0.23769 -8.8373,-2.0557 -19.11,-4.0401 -13.475,-2.6029 -19.132,-3.3245 -20.308,-2.5904 -2.7483,1.7162 -13.585,24.427 -18.02,37.765 -2.3082,6.9422 -4.0315,12.787 -3.8296,12.989 0.65612,0.65623 40.124,10.222 41.535,10.066 0.84653,-0.0932 2.8014,-4.9085 5.1232,-12.619 z" /><path
               style="fill:#ffffff"
               inkscape:connector-curvature="0"
               id="path3110"
               d="m 355.16,500 c -1.7805,-14.629 -6.388,-32.041 -10.779,-40.732 l -2.3103,-4.5731 -13.78,-4.6643 c -7.579,-2.5654 -14.025,-4.6595 -14.325,-4.6536 -0.29989,0.006 0.0123,3.7138 0.69363,8.2399 0.68138,4.5261 1.2633,14.986 1.2932,23.245 l 0.0543,15.015 18.201,5.5538 c 10.011,3.0546 18.909,5.6116 19.774,5.6824 1.2078,0.0988 1.4811,-0.62332 1.178,-3.1131 z" /><path
               style="fill:#ffffff"
               inkscape:connector-curvature="0"
               id="path3108"
               d="m 266.75,456.36 c 2.915,-11.247 5.3164,-20.953 5.3365,-21.571 0.02,-0.6172 -1.1977,-1.3898 -2.7062,-1.717 -1.5085,-0.32714 -9.9234,-2.1671 -18.7,-4.0888 l -15.957,-3.494 -1.7894,2.2185 c -6.765,8.3873 -23.726,37.042 -22.51,38.028 0.19984,0.16217 7.7685,1.9415 16.819,3.9541 9.0508,2.0126 19.822,4.505 23.936,5.5388 4.114,1.0337 8.108,1.8119 8.8755,1.7292 0.94769,-0.10209 3.0963,-6.7124 6.6955,-20.599 z" /><path
               style="fill:#ffffff"
               inkscape:connector-curvature="0"
               id="path3106"
               d="m 171.48,451.13 c 5.2459,-7.4797 16.197,-19.2 24.146,-25.842 l 5.7864,-4.835 -8.9002,0 -8.9002,0 -8.6742,6.171 c -4.7708,3.3941 -13.433,11.137 -19.249,17.207 l -10.575,11.036 8.4,1.096 c 14.157,1.8471 13.077,2.1375 17.966,-4.8321 z" /><path
               style="fill:#ffffff"
               inkscape:connector-curvature="0"
               id="path3104"
               d="m 310.54,439.65 c -1.0744,-5.7942 -6.2308,-17.46 -9.2622,-20.955 -2.1559,-2.4856 -4.612,-3.684 -11.635,-5.677 -4.896,-1.3895 -9.0872,-2.3409 -9.3138,-2.1143 -0.22657,0.2266 -1.6524,5.3155 -3.1685,11.309 l -2.7566,10.897 18.054,5.0456 c 9.9299,2.775 18.216,5.0884 18.415,5.1408 0.19818,0.0524 0.0482,-1.588 -0.33332,-3.6453 z" /><path
               style="fill:#ffffff"
               inkscape:connector-curvature="0"
               id="path3090"
               d="m 158.3,638.15 c -1.2406,-1.5821 -1.2053,-1.6174 0.37655,-0.37661 0.95993,0.75295 1.7453,1.5385 1.7453,1.7456 0,0.82097 -0.819,0.29257 -2.1219,-1.369 z" /></g></g></g></g></g></svg>