<?xml version="1.0" encoding="UTF-8" standalone="no"?>
<!-- Created with Inkscape (http://www.inkscape.org/) -->

<svg
   xmlns:dc="http://purl.org/dc/elements/1.1/"
   xmlns:cc="http://creativecommons.org/ns#"
   xmlns:rdf="http://www.w3.org/1999/02/22-rdf-syntax-ns#"
   xmlns:svg="http://www.w3.org/2000/svg"
   xmlns="http://www.w3.org/2000/svg"
   xmlns:sodipodi="http://sodipodi.sourceforge.net/DTD/sodipodi-0.dtd"
   xmlns:inkscape="http://www.inkscape.org/namespaces/inkscape"
   id="svg2"
   version="1.1"
   inkscape:version="0.91 r13725"
   xml:space="preserve"
   width="500"
   height="200"
   viewBox="0 0 499.99998 200"
   sodipodi:docname="boing-ball.svg"><metadata
     id="metadata8"><rdf:RDF><cc:Work
         rdf:about=""><dc:format>image/svg+xml</dc:format><dc:type
           rdf:resource="http://purl.org/dc/dcmitype/StillImage" /><dc:title></dc:title></cc:Work></rdf:RDF></metadata><defs
     id="defs6"><clipPath
       clipPathUnits="userSpaceOnUse"
       id="clipPath16"><path
         d="m 0,595.275 841.89,0 L 841.89,0 0,0 0,595.275 Z"
         id="path18"
         inkscape:connector-curvature="0" /></clipPath><clipPath
       clipPathUnits="userSpaceOnUse"
       id="clipPath138"><path
         d="m 290.118,321.389 260.888,0 0,-197.5 -260.888,0 0,197.5 z"
         id="path140"
         inkscape:connector-curvature="0" /></clipPath><linearGradient
       x1="0"
       y1="0"
       x2="1"
       y2="0"
       gradientUnits="userSpaceOnUse"
       gradientTransform="matrix(260.66611,-200.00023,-200.00023,-260.66611,295.34863,318.71045)"
       spreadMethod="pad"
       id="linearGradient146"><stop
         style="stop-opacity:1;stop-color:#ffffff"
         offset="0"
         id="stop148" /><stop
         style="stop-opacity:1;stop-color:#231f20"
         offset="1"
         id="stop150" /></linearGradient><clipPath
       clipPathUnits="userSpaceOnUse"
       id="clipPath188"><path
         d="m 327.29,485.137 190.669,0 0,-125 -190.669,0 0,125 z"
         id="path190"
         inkscape:connector-curvature="0" /></clipPath><linearGradient
       x1="0"
       y1="0"
       x2="1"
       y2="0"
       gradientUnits="userSpaceOnUse"
       gradientTransform="matrix(-163.99989,122.00018,122.00018,163.99989,519.92187,353.24805)"
       spreadMethod="pad"
       id="linearGradient196"><stop
         style="stop-opacity:1;stop-color:#ffffff"
         offset="0"
         id="stop198" /><stop
         style="stop-opacity:1;stop-color:#231f20"
         offset="1"
         id="stop200" /></linearGradient><style
       type="text/css"
       id="style6"><![CDATA[
    .fil3 {fill:none}
    .fil8 {fill:#714B3C}
    .fil2 {fill:#947451}
    .fil9 {fill:#A58869}
    .fil11 {fill:#A98966}
    .fil4 {fill:#A98C6D}
    .fil0 {fill:#B3926F}
    .fil5 {fill:#C09F7D}
    .fil1 {fill:#D0B08E}
    .fil6 {fill:#DDC5AC}
    .fil7 {fill:white}
    .fil12 {fill:#675341;fill-rule:nonzero}
    .fil10 {fill:#9B7B58;fill-rule:nonzero}
   ]]></style><radialGradient
       r="83.225"
       gradientTransform="matrix(1.07,1.0789,-0.74269,0.7556,57.014,-49.651)"
       cx="87.2"
       cy="86.877"
       gradientUnits="userSpaceOnUse"
       id="radialGradient4012"><stop
         offset="0"
         stop-color="#fff"
         id="stop4008" /><stop
         offset="1"
         stop-color="#a2a2a2"
         id="stop4010" /></radialGradient></defs><sodipodi:namedview
     pagecolor="#ffffff"
     bordercolor="#ffffff"
     borderopacity="1"
     objecttolerance="10"
     gridtolerance="10"
     guidetolerance="10"
     inkscape:pageopacity="0"
     inkscape:pageshadow="2"
     inkscape:window-width="1304"
     inkscape:window-height="745"
     id="namedview4"
     showgrid="false"
     inkscape:zoom="0.8869386"
     inkscape:cx="510.77678"
     inkscape:cy="87.060033"
     inkscape:window-x="54"
     inkscape:window-y="-8"
     inkscape:window-maximized="1"
     inkscape:current-layer="g10"
     inkscape:showpageshadow="false"
     borderlayer="true" /><g
     id="g10"
     inkscape:groupmode="layer"
     inkscape:label="Floppy disk"
     transform="matrix(1.25,0,0,-1.25,0,200)"><path
       style="fill:#000000;stroke-width:1.00750005"
       inkscape:connector-curvature="0"
       id="path3132"
       d="m 342.35594,-14.495755 -2.28398,0.331836 2.03018,0.441007 2.03019,0.441012 -4.48785,0.96645 c -4.21594,0.907933 -4.52607,0.913959 -5.1191,0.100005 -0.59069,-0.81066 -0.84209,-0.796056 -3.90388,0.226404 -1.7999,0.60105 -4.06418,1.741417 -5.03177,2.5340525 -1.52321,1.2478014 -6.58119,3.4487257 -6.58119,2.8637598 0,-0.1141133 0.62809,-0.5494269 1.39578,-0.9673692 0.76769,-0.417932 1.1626,-0.7690444 0.87761,-0.780278 -0.62448,-0.024612 -8.36389,4.4732843 -8.36389,4.8607936 0,0.1497546 0.2855,0.1034822 0.63446,-0.1028337 0.34894,-0.2063159 -1.11746,1.4775293 -3.25864,3.74192369 -2.14118,2.26434331 -4.91625,5.87110591 -6.16694,8.01468761 -2.1624,3.7069977 -2.45334,3.9842127 -5.94353,5.6627727 l -3.66973,1.764855 0.89832,-1.412578 c 1.26912,-1.995604 4.11854,-5.6014988 6.54964,-8.2883799 l 2.0736,-2.2920189 -2.70128,2.546665 c -3.92918,3.7042399 -9.56695,11.4312448 -10.03362,13.7520108 -0.30205,1.501529 -3.17451,6.789711 -3.51864,6.477722 -0.22201,-0.20122 -0.24969,-0.09612 -0.0615,0.233543 0.18818,0.329671 -0.23131,2.362331 -0.93222,4.517044 -0.70087,2.154713 -1.53909,5.43759 -1.86265,7.295224 -0.32355,1.857686 -0.93588,3.661961 -1.36077,4.009438 -2.0939,1.712567 -2.12464,16.192773 -0.0561,26.435805 0.41839,2.07184 0.70962,2.575617 1.39247,2.408543 0.69379,-0.169766 1.15746,0.71645 2.35991,4.510866 1.60896,5.077143 5.58882,13.354749 8.37254,17.415197 1.15105,1.678611 1.43939,2.398687 0.87323,2.180653 -0.46487,-0.179014 -0.84519,-0.125981 -0.84519,0.117856 0,0.907575 9.84023,10.788377 13.48706,13.543167 7.41376,5.59946 19.53644,11.04573 28.30746,12.7175 4.18129,0.79702 9.29316,1.1131 9.7985,0.60585 0.19027,-0.19093 -0.20602,-0.3492 -0.88061,-0.35171 -2.21553,-0.008 -10.98578,-3.36171 -14.77154,-5.64847 -3.49956,-2.11366 -3.6247,-2.25051 -2.18912,-2.39379 0.83746,-0.0836 4.24464,-0.58604 7.57152,-1.11647 l 6.04888,-0.96446 3.64184,3.40849 c 2.00301,1.87464 4.80841,4.00913 6.23411,4.74335 l 2.59238,1.33486 -2.32988,0.32048 c -1.28143,0.17625 -3.04032,0.32397 -3.90856,0.32826 -1.20591,0.006 -1.39894,0.12438 -0.81736,0.50154 0.86153,0.55872 6.59239,0.59655 10.40461,0.0687 l 2.53772,-0.35135 -1.77639,-0.4196 c -1.71558,-0.40523 -1.63741,-0.4513 2.28397,-1.34543 3.69462,-0.84242 4.11666,-0.8532 4.68485,-0.11943 0.56733,0.73263 0.91425,0.71834 3.79248,-0.15618 1.7424,-0.52941 3.85955,-1.563 4.7048,-2.29687 0.84524,-0.73386 2.67878,-1.70904 4.07451,-2.16702 2.09762,-0.68831 2.36688,-0.702 1.55253,-0.0788 -0.54189,0.41466 -0.7655,0.75393 -0.49694,0.75393 0.62193,0 8.33386,-4.51694 8.33386,-4.88117 0,-0.14975 -0.28549,-0.0981 -0.63445,0.11471 -0.34894,0.21285 0.96509,-1.35962 2.92006,-3.49437 1.95497,-2.13475 4.58154,-5.59486 5.83666,-7.68891 2.13965,-3.569439 2.51232,-3.919878 5.96185,-5.605587 2.02387,-0.98907 3.6797,-1.690917 3.6797,-1.559739 0,0.587979 -4.51736,6.285219 -7.7817,9.814116 l -3.58729,3.87815 3.942,-3.81999 c 4.40785,-4.271441 9.40104,-10.60813 9.73438,-12.352407 0.12016,-0.629645 0.52931,-1.374027 0.90921,-1.654153 0.37991,-0.280136 0.72056,-0.73856 0.75705,-1.018686 0.0365,-0.280136 0.98672,-2.734879 2.11161,-5.454951 1.12489,-2.720071 2.63131,-7.418794 3.34749,-10.441152 0.71624,-3.022665 1.64352,-5.761834 2.06067,-6.087098 1.81777,-1.417481 2.15629,-16.995979 0.54611,-25.130151 -0.55293,-2.793295 -0.8112,-3.295285 -1.65263,-3.212258 -0.83003,0.0819 -1.20504,-0.592932 -2.23619,-4.02399 -1.65832,-5.517757 -4.87024,-12.571459 -7.77966,-17.084316 -1.62673,-2.523329 -2.14276,-3.692649 -1.62952,-3.692649 0.4131,0 0.75109,-0.206693 0.75109,-0.459318 0,-0.914468 -9.79596,-10.7710125 -13.44024,-13.52376359 C 385.21319,-6.3464121 372.95412,-11.861105 364.0742,-13.672784 c -3.81467,-0.778389 -8.98273,-1.090071 -8.40155,-0.506693 0.15981,0.16038 2.42474,1.03043 5.03319,1.93341 5.15269,1.783697 12.30538,5.691368 11.83006,6.4629144 -0.16257,0.2639547 -1.02438,0.4871262 -1.91517,0.4959344 -0.89079,0.00878 -4.11579,0.4498253 -7.16694,0.9800324 l -5.54709,0.9640501 -3.42347,-3.4355007 c -1.88291,-1.8895484 -4.46851,-3.9918716 -5.74607,-4.6718646 -1.27731,-0.679992 -2.32235,-1.381941 -2.32235,-1.559892 0,-0.177946 1.51965,-0.48685 3.37701,-0.686477 2.2714,-0.244107 3.14382,-0.511131 2.66463,-0.815562 -0.79364,-0.504242 -6.58271,-0.494714 -10.10181,0.0166 z" /><path
       style="fill:#ffffff;stroke-width:1.00750005"
       inkscape:connector-curvature="0"
       id="path3106"
       d="m 311.43982,98.213342 c 2.66967,3.819278 8.24277,9.803898 12.28807,13.195438 l 2.94474,2.46884 -4.52937,0 -4.52938,0 -4.41436,-3.15103 c -2.4279,-1.73309 -6.83616,-5.68677 -9.79596,-8.78623 l -5.38169,-5.635204 4.27482,-0.559639 c 7.2046,-0.943166 6.65498,-1.09145 9.14303,2.467366 z" /><path
       style="fill:#ffffff;stroke-width:1.00750005"
       inkscape:connector-curvature="0"
       id="path3130"
       d="m 335.59765,-4.5846259 c 0.65074,3.0555486 1.103,5.6362208 1.00499,5.7342598 -0.098,0.09833 -3.92571,1.2319212 -8.50588,2.5190915 -4.58037,1.2871702 -8.73946,2.461034 -9.24226,2.6086031 -0.78153,0.2293142 -0.86357,0.055065 -0.56433,-1.1986288 0.71954,-3.014699 2.83828,-8.1408107 4.32698,-10.4687261 1.35024,-2.1115148 1.89309,-2.5072451 4.42098,-3.2225213 1.58499,-0.4484671 3.45279,-1.0190438 4.15065,-1.268022 2.85344,-1.0178183 3.13706,-0.6771843 4.40917,5.2961481 z" /><path
       style="fill:#ffffff;stroke-width:1.00750005"
       inkscape:connector-curvature="0"
       id="path3128"
       d="m 386.57998,-3.7267847 c 4.66628,3.17993555 9.76441,7.7644839 13.43567,12.0827951 l 3.31532,3.8991946 -4.73095,0.615552 c -7.07636,0.92075 -6.50486,1.104777 -9.38629,-3.0206221 -3.20306,-4.5857739 -7.58882,-9.43880609 -11.42446,-12.6424344 -2.86194,-2.3901089 -2.89675,-2.4499536 -1.54489,-2.6561929 0.76072,-0.1160281 2.70886,-0.2452966 4.32933,-0.2872695 2.67206,-0.069215 3.231,0.1177336 6.00612,2.0088802 z" /><path
       style="fill:#ffffff;stroke-width:1.00750005"
       inkscape:connector-curvature="0"
       id="path3126"
       d="m 360.99721,2.4619267 c 1.91059,2.871368 4.66281,7.5474703 6.11605,10.3911123 l 2.6422,5.170535 -3.93004,0.859373 c -2.16153,0.47264 -8.04125,1.849873 -13.06569,3.060502 -5.02474,1.210628 -9.22852,2.109676 -9.34201,1.997902 -0.47202,-0.465849 -5.47635,-21.8897584 -5.18627,-22.2032789 0.17412,-0.1882961 3.97095,-1.14618815 8.43717,-2.12867161 4.46643,-0.98248349 8.57763,-1.89051859 9.13591,-2.01786709 0.55832,-0.1273639 1.17338,-0.2581643 1.36682,-0.2906601 0.19346,-0.032475 1.91497,2.29023169 3.82556,5.1613444 z" /><path
       style="fill:#ffffff;stroke-width:1.00750005"
       inkscape:connector-curvature="0"
       id="path3124"
       d="m 316.97673,7.6140799 c 0,0.1018329 -0.24865,1.4197272 -0.55257,2.9286601 -0.30391,1.508932 -0.70362,6.849453 -0.8882,11.867313 l -0.33564,9.123754 -9.64329,2.930344 c -5.30383,1.61167 -9.72318,2.849922 -9.8214,2.751628 -0.098,-0.09829 0.17765,-2.428558 0.61247,-5.178195 0.96672,-6.11365 2.95706,-13.142331 4.79218,-16.922449 l 1.37135,-2.82485 6.85193,-2.403794 c 6.80409,-2.3869431 7.61325,-2.6286194 7.61325,-2.2728706 z" /><path
       style="fill:#ffffff;stroke-width:1.00750005"
       inkscape:connector-curvature="0"
       id="path3122"
       d="m 392.94132,16.723536 c 2.1935,3.476759 5.52928,10.970155 7.43769,16.709521 2.85456,8.583007 3.87588,7.368243 -8.79087,10.456982 -6.00154,1.46364 -10.96797,2.607735 -11.03566,2.542427 -0.068,-0.06527 -1.04738,-3.288902 -2.17644,-7.163485 -1.12906,-3.874685 -3.26444,-10.111292 -4.74525,-13.859752 -1.48082,-3.748051 -2.55701,-6.894898 -2.39151,-6.992427 0.1655,-0.09789 3.95528,-0.880512 8.4219,-1.739119 4.46643,-0.858659 8.57764,-1.660025 9.13591,-1.780889 2.31349,-0.500785 2.81568,-0.279452 4.14449,1.826793 z" /><path
       style="fill:#ffffff;stroke-width:1.00750005"
       inkscape:connector-curvature="0"
       id="path3120"
       d="m 346.0048,39.726956 c 1.90179,7.81912 3.35782,14.316757 3.23558,14.439305 -0.51755,0.519352 -27.9787,7.163485 -28.27336,6.840773 -0.90601,-0.992543 -4.49793,-23.323578 -4.49793,-27.96358 0,-1.2838 -0.98946,-0.939234 14.46519,-5.037111 5.58322,-1.480388 10.47992,-2.647614 10.88196,-2.593846 0.51893,0.06938 1.73354,4.22017 4.18872,14.314204 z" /><path
       style="fill:#ffffff;stroke-width:1.00750005"
       inkscape:connector-curvature="0"
       id="path3118"
       d="m 295.83672,59.63602 c 0.44099,2.521185 0.94346,5.284404 1.11659,6.140203 l 0.31479,1.556164 -5.49976,1.301979 c -3.86276,0.914417 -5.5934,1.133473 -5.81478,0.735854 -1.58016,-2.840374 -2.53263,-25.416098 -1.13161,-26.822345 0.321,-0.32213 2.605,-1.349364 5.07549,-2.282777 l 4.49187,-1.697096 0.32285,8.241914 c 0.17756,4.533078 0.68366,10.304817 1.12463,12.825747 z" /><path
       style="fill:#ffffff;stroke-width:1.00750005"
       inkscape:connector-curvature="0"
       id="path3116"
       d="m 416.50882,44.399127 c 0.7171,4.421303 0.90515,17.190014 0.29714,20.173054 -0.36357,1.783493 -0.58397,1.95741 -4.3075,3.398379 -2.15837,0.835272 -4.49166,1.661148 -5.18525,1.835269 l -1.26067,0.316564 -0.0889,-8.044303 c -0.061,-5.515204 -0.42155,-9.950958 -1.14698,-14.108935 -0.58193,-3.335521 -0.95705,-6.165733 -0.83369,-6.289814 0.12339,-0.12383 2.69512,-0.850488 5.71503,-1.614784 6.3593,-1.609575 5.7878,-1.973545 6.81071,4.3346 z" /><path
       style="fill:#ffffff;stroke-width:1.00750005"
       inkscape:connector-curvature="0"
       id="path3114"
       d="m 380.53416,51.782688 c 1.748,7.500494 4.06404,25.42529 3.28515,25.42529 -0.16481,0 -5.95523,1.48769 -12.86772,3.305956 -6.91249,1.818266 -12.71912,3.136175 -12.90385,2.92866 -0.6343,-0.712928 -7.07585,-28.329184 -6.68959,-28.681512 0.50844,-0.463944 27.13698,-7.067998 27.79092,-6.892345 0.27769,0.07459 0.90117,1.835933 1.3855,3.914053 z" /><path
       style="fill:#ffffff;stroke-width:1.00750005"
       inkscape:connector-curvature="0"
       id="path3112"
       d="m 322.05562,69.056954 c 2.24373,7.476495 3.26062,10.373751 5.7873,16.487912 1.02697,2.485135 1.76825,4.617739 1.64733,4.739113 -0.12094,0.121369 -4.49737,1.049681 -9.72522,2.062955 -6.85752,1.329092 -9.73641,1.697555 -10.33489,1.322709 -1.39863,-0.876325 -6.9135,-12.472908 -9.17051,-19.283554 -1.17466,-3.544825 -2.05166,-6.529295 -1.94891,-6.63244 0.33391,-0.335084 20.4194,-5.219555 21.13747,-5.139899 0.4308,0.04759 1.42565,2.506377 2.60723,6.443511 z" /><path
       style="fill:#ffffff;stroke-width:1.00750005"
       inkscape:connector-curvature="0"
       id="path3110"
       d="m 404.91591,73.259355 c -0.90611,7.469856 -3.2509,16.360767 -5.48551,20.798564 l -1.17573,2.335115 -7.01274,2.381684 c -3.85701,1.309942 -7.13742,2.379232 -7.2901,2.376222 -0.15261,-0.003 0.006,-1.896342 0.353,-4.207458 0.34676,-2.311116 0.6429,-7.652148 0.65812,-11.869356 l 0.0276,-7.666956 9.26262,-2.83588 c 5.09467,-1.559739 9.62293,-2.865393 10.06313,-2.901545 0.61466,-0.05045 0.75375,0.318279 0.5995,1.58961 z" /><path
       style="fill:#ffffff;stroke-width:1.00750005"
       inkscape:connector-curvature="0"
       id="path3108"
       d="m 359.92342,95.542801 c 1.48346,5.742939 2.70555,10.699019 2.71578,11.014579 0.0102,0.31515 -0.60952,0.70966 -1.3772,0.87673 -0.76769,0.16705 -5.05009,1.10657 -9.51657,2.08783 l -8.12063,1.7841 -0.91064,-1.13281 c -3.44276,-4.28272 -12.07434,-18.914376 -11.45551,-19.417847 0.1017,-0.08281 3.95345,-0.991368 8.55932,-2.019041 4.60601,-1.027674 10.08756,-2.300342 12.1812,-2.828221 2.09365,-0.527828 4.12622,-0.925192 4.51681,-0.882964 0.48228,0.05213 1.57573,3.427484 3.40739,10.518257 z" /><path
       style="fill:#ffffff;stroke-width:1.00750005"
       inkscape:connector-curvature="0"
       id="path3104"
       d="m 382.20847,104.07526 c -0.54677,2.95863 -3.1709,8.91542 -4.7136,10.70003 -1.09716,1.2692 -2.34708,1.88113 -5.92114,2.89879 -2.49161,0.70951 -4.62454,1.19531 -4.73986,1.07961 -0.1153,-0.11571 -0.84092,-2.7142 -1.61247,-5.7746 l -1.40286,-5.56423 9.18782,-2.57638 c 5.05339,-1.41697 9.27025,-2.59824 9.37152,-2.62499 0.10086,-0.0268 0.0245,0.81086 -0.16962,1.86136 z" /><path
       style="fill:#ffffff;stroke-width:1.00750005"
       inkscape:connector-curvature="0"
       id="path3090"
       d="m 304.73242,2.7172365 c -0.63135,0.8078515 -0.61339,0.8258764 0.19163,0.1923045 0.48851,-0.3844711 0.88819,-0.7855884 0.88819,-0.8913378 0,-0.4192035 -0.41679,-0.149392 -1.07985,0.6990384 z" /><line
       x1="391.84625"
       y1="78.911453"
       x2="337.80936"
       class="fil3"
       y2="110.12103"
       id="line15"
       style="clip-rule:evenodd;fill:none;fill-rule:evenodd;image-rendering:optimizeQuality;shape-rendering:geometricPrecision;text-rendering:geometricPrecision" /><line
       x1="391.84625"
       y1="78.911453"
       x2="392.009"
       class="fil3"
       y2="77.365211"
       id="line17"
       style="clip-rule:evenodd;fill:none;fill-rule:evenodd;image-rendering:optimizeQuality;shape-rendering:geometricPrecision;text-rendering:geometricPrecision" /><ellipse
       style="opacity:1;fill:none;fill-opacity:1;stroke:#000000;stroke-width:2.4;stroke-linecap:round;stroke-linejoin:round;stroke-miterlimit:4;stroke-dasharray:none;stroke-dashoffset:0;stroke-opacity:1"
       id="path5037"
       cx="351.10638"
       cy="-54.053162"
       transform="scale(1,-1)"
       rx="68.24411"
       ry="68.403564" /></g></svg>
