<?xml version="1.0" encoding="UTF-8" standalone="no"?>
<!-- Created with Inkscape (http://www.inkscape.org/) -->

<svg
   xmlns:dc="http://purl.org/dc/elements/1.1/"
   xmlns:cc="http://creativecommons.org/ns#"
   xmlns:rdf="http://www.w3.org/1999/02/22-rdf-syntax-ns#"
   xmlns:svg="http://www.w3.org/2000/svg"
   xmlns="http://www.w3.org/2000/svg"
   xmlns:sodipodi="http://sodipodi.sourceforge.net/DTD/sodipodi-0.dtd"
   xmlns:inkscape="http://www.inkscape.org/namespaces/inkscape"
   id="svg2"
   version="1.1"
   inkscape:version="0.91 r13725"
   xml:space="preserve"
   width="500"
   height="200"
   viewBox="0 0 499.99998 200"
   sodipodi:docname="boing-ball.svg"><metadata
     id="metadata8"><rdf:RDF><cc:Work
         rdf:about=""><dc:format>image/svg+xml</dc:format><dc:type
           rdf:resource="http://purl.org/dc/dcmitype/StillImage" /><dc:title></dc:title></cc:Work></rdf:RDF></metadata><defs
     id="defs6"><clipPath
       clipPathUnits="userSpaceOnUse"
       id="clipPath16"><path
         d="m 0,595.275 841.89,0 L 841.89,0 0,0 0,595.275 Z"
         id="path18"
         inkscape:connector-curvature="0" /></clipPath><clipPath
       clipPathUnits="userSpaceOnUse"
       id="clipPath138"><path
         d="m 290.118,321.389 260.888,0 0,-197.5 -260.888,0 0,197.5 z"
         id="path140"
         inkscape:connector-curvature="0" /></clipPath><linearGradient
       x1="0"
       y1="0"
       x2="1"
       y2="0"
       gradientUnits="userSpaceOnUse"
       gradientTransform="matrix(260.66611,-200.00023,-200.00023,-260.66611,295.34863,318.71045)"
       spreadMethod="pad"
       id="linearGradient146"><stop
         style="stop-opacity:1;stop-color:#ffffff"
         offset="0"
         id="stop148" /><stop
         style="stop-opacity:1;stop-color:#231f20"
         offset="1"
         id="stop150" /></linearGradient><clipPath
       clipPathUnits="userSpaceOnUse"
       id="clipPath188"><path
         d="m 327.29,485.137 190.669,0 0,-125 -190.669,0 0,125 z"
         id="path190"
         inkscape:connector-curvature="0" /></clipPath><linearGradient
       x1="0"
       y1="0"
       x2="1"
       y2="0"
       gradientUnits="userSpaceOnUse"
       gradientTransform="matrix(-163.99989,122.00018,122.00018,163.99989,519.92187,353.24805)"
       spreadMethod="pad"
       id="linearGradient196"><stop
         style="stop-opacity:1;stop-color:#ffffff"
         offset="0"
         id="stop198" /><stop
         style="stop-opacity:1;stop-color:#231f20"
         offset="1"
         id="stop200" /></linearGradient><style
       type="text/css"
       id="style6"><![CDATA[
    .fil3 {fill:none}
    .fil8 {fill:#714B3C}
    .fil2 {fill:#947451}
    .fil9 {fill:#A58869}
    .fil11 {fill:#A98966}
    .fil4 {fill:#A98C6D}
    .fil0 {fill:#B3926F}
    .fil5 {fill:#C09F7D}
    .fil1 {fill:#D0B08E}
    .fil6 {fill:#DDC5AC}
    .fil7 {fill:white}
    .fil12 {fill:#675341;fill-rule:nonzero}
    .fil10 {fill:#9B7B58;fill-rule:nonzero}
   ]]></style><radialGradient
       r="83.225"
       gradientTransform="matrix(1.07,1.0789,-0.74269,0.7556,57.014,-49.651)"
       cx="87.2"
       cy="86.877"
       gradientUnits="userSpaceOnUse"
       id="radialGradient4012"><stop
         offset="0"
         stop-color="#fff"
         id="stop4008" /><stop
         offset="1"
         stop-color="#a2a2a2"
         id="stop4010" /></radialGradient></defs><sodipodi:namedview
     pagecolor="#ffffff"
     bordercolor="#000000"
     borderopacity="1"
     objecttolerance="10"
     gridtolerance="10"
     guidetolerance="10"
     inkscape:pageopacity="0"
     inkscape:pageshadow="2"
     inkscape:window-width="1304"
     inkscape:window-height="745"
     id="namedview4"
     showgrid="false"
     inkscape:zoom="1.7738772"
     inkscape:cx="427.21699"
     inkscape:cy="87.060033"
     inkscape:window-x="54"
     inkscape:window-y="-8"
     inkscape:window-maximized="1"
     inkscape:current-layer="g10"
     inkscape:showpageshadow="false"
     borderlayer="true" /><g
     id="g10"
     inkscape:groupmode="layer"
     inkscape:label="Floppy disk"
     transform="matrix(1.25,0,0,-1.25,0,200)"><path
       style="fill:#000000;stroke-width:1.00750005"
       d="m 338.53925,155.74385 c -2.49392,-0.0165 -4.53313,-0.20134 -5.06577,-0.54677 -0.71912,-0.46635 -0.47872,-0.61276 1.01238,-0.62018 1.07358,-0.005 3.24752,-0.18779 4.832,-0.40572 l 2.88066,-0.39607 -3.20523,-1.64995 c -1.76288,-0.90786 -5.23208,-3.54765 -7.7088,-5.86564 l -4.50355,-4.21376 -7.47889,1.19207 c -4.11368,0.65587 -8.32709,1.27609 -9.36262,1.37946 -1.77507,0.17717 -1.62042,0.34633 2.70678,2.95987 4.68108,2.82758 15.5259,6.97439 18.2654,6.98429 0.83412,0.003 1.32494,0.20055 1.08966,0.43663 -0.62485,0.62722 -6.94559,0.23589 -12.11575,-0.74962 -10.84535,-2.06714 -25.83546,-8.80106 -35.00256,-15.72478 -4.5093,-3.4063 -16.67728,-15.62461 -16.67728,-16.74683 0,-0.3015 0.47042,-0.36625 1.04523,-0.1449 0.70006,0.2696 0.34327,-0.62151 -1.08,-2.69711 -3.44206,-5.02074 -8.36233,-15.2565 -10.35181,-21.534398 -1.48683,-4.69179 -2.05949,-5.787683 -2.91737,-5.577765 -0.84434,0.206584 -1.20603,-0.415424 -1.72336,-2.977251 -2.55775,-12.665492 -2.51956,-30.570414 0.0695,-32.688001 0.52538,-0.429649 1.28273,-2.660559 1.6828,-4.957577 0.40008,-2.296969 1.43635,-6.356344 2.30298,-9.020641 0.86666,-2.664308 1.38611,-5.177862 1.15342,-5.585501 -0.2327,-0.407629 -0.19917,-0.53668 0.0753,-0.287867 0.42552,0.385768 3.97745,-6.153557 4.35093,-8.010194 0.57704,-2.869626 7.54906,-12.425434 12.40749,-17.00572 l 3.34048,-3.1472745 -2.56574,2.8342915 c -3.00604,3.322323 -6.52787,7.779919 -8.09713,10.247475 l -1.11091,1.746559 4.53641,-2.181262 c 4.3156,-2.075537 4.67562,-2.419906 7.34942,-7.003606 1.54649,-2.650538 4.97816,-7.1095192 7.62573,-9.9093768 2.64756,-2.799917 4.46167,-4.8823187 4.03021,-4.62720434 -0.43149,0.25510445 -0.7844,0.3126857 -0.7844,0.12750771 0,-0.47914807 9.56804,-6.04096707 10.34021,-6.01053937 0.35239,0.013888 -0.13462,0.4473156 -1.08387,0.9640829 -0.94924,0.5167871 -1.72723,1.056761 -1.72723,1.1978603 0,0.723312 6.25426,-1.9985078 8.13771,-3.5414104 1.19642,-0.9800882 3.99749,-2.390557 6.22305,-3.133752 3.78591,-1.264265 4.09583,-1.282526 4.82622,-0.280141 0.73328,1.00645 1.11632,0.999012 6.32932,-0.12365 l 5.55072,-1.193992 -2.51164,-0.54677 -2.50971,-0.544831 2.8227,-0.409587 0.002,0 c 4.35154,-0.63198 11.50744,-0.644661 12.48863,-0.02125 0.59252,0.376419 -0.48552,0.706673 -3.29411,1.008517 -2.29662,0.246835 -4.17704,0.628132 -4.17704,0.848159 0,0.220038 1.29354,1.089286 2.87293,1.930095 1.57969,0.8408089 4.77586,3.440344 7.10407,5.776762 l 4.23307,4.24660027 6.85871,-1.19206357 c 3.77273,-0.6555914 7.76075,-1.2005212 8.86221,-1.2113826 1.10146,-0.010881 2.16765,-0.2860663 2.36867,-0.6124524 0.58773,-0.9540129 -8.2561,-5.7853286 -14.62739,-7.9908657 -3.22535,-1.116538 -6.02546,-2.193538 -6.22306,-2.391853 -0.71864,-0.721343 5.66975,-0.336495 10.38658,0.625975 10.98001,2.240139 26.13869,9.0601302 34.97359,15.7325127 4.50614,3.4037733 16.61931,15.5909683 16.61931,16.7217113 0,0.312369 -0.41851,0.568018 -0.92932,0.568018 -0.63462,0 0.004,1.445288 2.01511,4.565379 3.5975,5.580139 7.56906,14.302102 9.61957,21.124803 1.27502,4.242495 1.73841,5.07817 2.76473,4.976906 1.04043,-0.102659 1.3604,0.516411 2.04409,3.970317 1.99099,10.057895 1.57339,29.322035 -0.67427,31.074747 -0.51581,0.402188 -1.66272,3.789669 -2.54835,7.527188 -0.88556,3.737144 -2.74942,9.546452 -4.14034,12.909812 -1.39092,3.36337 -2.56504,6.39833 -2.61017,6.74472 -0.0451,0.34637 -0.46727,0.91329 -0.93704,1.25968 -0.46974,0.34637 -0.97392,1.26746 -1.1225,2.04602 -0.41218,2.15679 -6.58624,9.99105 -12.03654,15.27268 l -4.8745,4.72381 4.434,-4.79529 c 4.03635,-4.36348 9.62343,-11.40804 9.62343,-12.13507 0,-0.1622 -2.04741,0.70518 -4.54993,1.92816 -4.26533,2.08438 -4.72694,2.51852 -7.37261,6.93212 -1.55196,2.58929 -4.79881,6.8679 -7.21613,9.50751 -2.41732,2.63962 -4.04243,4.58321 -3.61096,4.32002 0.43149,-0.26314 0.7844,-0.3262 0.7844,-0.14104 0,0.45037 -9.53642,6.03566 -10.30544,6.03566 -0.33207,0 -0.0557,-0.42044 0.61438,-0.93317 1.00695,-0.77059 0.6752,-0.75449 -1.9185,0.0966 -1.72582,0.56629 -3.99359,1.77231 -5.03873,2.67972 -1.04516,0.90743 -3.66286,2.18547 -5.81734,2.84009 -3.55893,1.08134 -3.98753,1.0991 -4.68904,0.1932 -0.70255,-0.90731 -1.22575,-0.89289 -5.79415,0.14877 -4.84877,1.10559 -4.944,1.16241 -2.8227,1.66347 l 2.19673,0.51779 -3.13955,0.4347 c -2.35691,0.32635 -5.30567,0.47822 -7.79961,0.46176 z m 17.83843,-5.20682 c 0.64246,-0.0311 2.99793,-0.58864 5.69369,-1.35628 4.41932,-1.25834 5.96575,-2.01455 7.32239,-3.58392 1.90755,-2.20666 5.15091,-9.57219 5.827,-13.23053 0.24003,-1.29894 0.3353,-2.33418 0.21059,-2.30105 -0.12522,0.0331 -5.3398,1.49373 -11.58831,3.24581 l -11.36033,3.18592 1.73496,6.87995 c 0.95402,3.78418 1.85128,6.99577 1.99386,7.13885 0.0178,0.0179 0.0744,0.0257 0.16615,0.0212 z m -61.02699,-6.04918 5.60095,0 5.59902,0 -3.63994,-3.05261 c -5.00201,-4.19363 -11.89436,-11.59345 -15.19541,-16.31598 l 0,-0.002 c -3.07646,-4.40047 -2.39583,-4.2169 -11.3043,-3.05067 l -5.28603,0.69166 6.65391,6.96883 c 3.65979,3.83248 9.11172,8.72083 12.11382,10.8638 l 5.45798,3.8969 z m 32.16248,-3.18012 10.04075,-2.20638 c 5.5228,-1.21332 10.81875,-2.37463 11.76799,-2.58119 0.94924,-0.20658 1.71473,-0.69418 1.70212,-1.08387 -0.0127,-0.39019 -1.52357,-6.51966 -3.35786,-13.6208 -2.26453,-8.76631 -3.61747,-12.94003 -4.21376,-13.00448 -0.48297,-0.0522 -2.9967,0.43893 -5.58549,1.09159 -2.58879,0.65272 -9.36485,2.22626 -15.06017,3.49697 -5.69515,1.27072 -10.45791,2.39379 -10.58365,2.49619 -0.76519,0.62254 9.90673,18.71567 14.1637,24.01125 l 1.12637,1.40072 z m 49.86373,-12.55626 c 0.18878,0.004 4.24566,-1.31887 9.01484,-2.93861 l 8.67095,-2.94441 1.45289,-2.88839 c 2.76309,-5.48732 5.66294,-16.48077 6.78335,-25.717228 0.19072,-1.571995 0.0181,-2.027254 -0.7419,-1.964875 -0.54431,0.0447 -6.14272,1.659163 -12.44226,3.587774 l -11.45307,3.50664 -0.0348,9.478529 c -0.0188,5.21457 -0.38461,11.81993 -0.81338,14.67762 -0.42907,2.85769 -0.62534,5.19925 -0.43664,5.20295 z m -91.02946,-9.08053 c 1.71084,-0.01 5.30417,-0.57388 11.66365,-1.80645 6.46423,-1.25291 11.87541,-2.4002 12.02495,-2.55027 0.14952,-0.15008 -0.76844,-2.78698 -2.0383,-5.85985 -3.12423,-7.56015 -4.37992,-11.144024 -7.1543,-20.388699 l -0.002,0.0019 c -1.46103,-4.868262 -2.68994,-7.908841 -3.22263,-7.967689 -0.88789,-0.09849 -25.7236,5.940109 -26.13648,6.354444 -0.12706,0.127538 0.95677,3.818288 2.40924,8.201457 2.79078,8.421367 9.60967,22.761527 11.33907,23.845097 0.185,0.11588 0.54644,0.17323 1.11672,0.17002 z m 59.40021,-12.80549 c 1.64416,-0.17075 8.0759,-1.66496 15.55477,-3.63221 8.54729,-2.24828 15.70647,-4.088168 15.91026,-4.088168 0.96309,0 -1.89973,-22.16363 -4.06113,-31.437971 -0.59887,-2.569592 -1.37034,-4.747501 -1.7137,-4.839734 -0.8086,-0.217198 -33.73438,7.948508 -34.36306,8.522174 -0.47762,0.435653 7.48862,34.582789 8.27294,35.464319 0.0285,0.0321 0.16505,0.036 0.39992,0.0116 z m 58.9578,-16.482137 1.55721,-0.390268 c 0.85762,-0.215299 3.74358,-1.237319 6.41241,-2.270132 4.60413,-1.781754 4.87704,-1.996876 5.32659,-4.202165 0.7518,-3.688524 0.51961,-19.477481 -0.36708,-24.944416 -1.26483,-7.80001 -0.55845,-7.349687 -8.42171,-5.359449 -3.73412,0.945051 -6.91479,1.844599 -7.06736,1.997717 -0.15253,0.153424 0.31214,3.652052 1.0317,7.776417 0.89699,5.141331 1.34268,10.626675 1.41811,17.44622 l 0.11013,9.946076 z M 257.33802,89.680062 c 1.11356,-0.0587 3.0698,-0.429361 6.05499,-1.136035 l 6.80074,-1.609377 -0.39027,-1.924308 c -0.21408,-1.058195 -0.83419,-4.475431 -1.37947,-7.592871 -0.54528,-3.117123 -1.17151,-10.254875 -1.39107,-15.86002 l -0.39992,-10.189518 -5.55459,2.098179 c -3.05476,1.154167 -5.87831,2.424378 -6.27523,2.822698 -1.73235,1.738824 -0.55507,29.653081 1.3988,33.165201 0.10265,0.184367 0.46789,0.261267 1.13602,0.226051 z m 42.1588,-10.566264 c 0.36435,0.399033 34.32011,-7.818181 34.96006,-8.460359 0.15115,-0.151525 -1.64967,-8.18555 -4.00123,-17.853879 -3.03583,-12.481254 -4.53812,-17.613523 -5.17977,-17.699316 -0.49712,-0.06648 -6.55101,1.376677 -13.45464,3.20717 -19.10965,5.067022 -17.88672,4.641449 -17.88672,6.228865 0,5.737352 4.44202,33.35024 5.5623,34.577519 z m 73.67792,-18.021963 c 0.0837,0.08075 6.22308,-1.333628 13.64399,-3.143417 15.66241,-3.819217 14.40118,-2.318197 10.87152,-12.931062 -2.35974,-7.096719 -6.48613,-16.362108 -9.19839,-20.661116 l 0.002,0 c -1.64307,-2.604372 -2.26504,-2.877767 -5.12567,-2.258548 -0.6903,0.149448 -5.77384,1.140783 -11.29657,2.20252 -5.52297,1.061667 -10.209,2.029301 -10.41363,2.15034 -0.20465,0.120603 1.1269,4.011369 2.95793,8.645834 1.83102,4.634959 4.47149,12.34605 5.86757,17.137095 1.39608,4.790917 2.60724,8.777645 2.69132,8.858354 z M 268.29842,49.694792 c 0.12146,0.121543 5.58656,-1.40947 12.14474,-3.402299 l 11.92255,-3.622555 0.41538,-11.283047 c 0.22824,-6.204581 0.72161,-12.807967 1.0974,-14.673764 0.37579,-1.865787 0.68393,-3.4947 0.68393,-3.620615 0,-0.439887 -0.9996,-0.142287 -9.41284,2.809166 l -8.47388,2.973392 -1.69439,3.493108 c -2.26912,4.674112 -4.73018,13.364352 -5.92553,20.923877 -0.53766,3.399916 -0.87853,6.281204 -0.75736,6.402737 z m 58.95779,-16.414516 c 0.14033,0.138211 5.33851,-0.972194 11.5516,-2.469129 6.21271,-1.496944 13.4829,-3.200423 16.15562,-3.784842 l 4.86099,-1.062617 -3.269,-6.393082 c -1.79693,-3.516166 -5.19951,-9.297548 -7.56196,-12.8479996 -2.36243,-3.5501253 -4.49039,-6.42164048 -4.7296,-6.3814889 -0.23919,0.0401813 -1.00016,0.20187567 -1.69052,0.3593561 -0.69032,0.15747054 -5.77385,1.2794098 -11.29657,2.4942546 -5.52248,1.2148349 -10.21767,2.3985892 -10.43296,2.6314268 -0.35869,0.3876669 5.82875,26.878101 6.4124,27.454121 z m 62.38134,-13.021871 c 1.30626,-0.04305 3.11778,-0.310766 5.85212,-0.666551 l 5.85018,-0.761218 -4.09977,-4.820415 c -4.5395,-5.3395857 -10.84366,-11.0083866 -16.61351,-14.94037219 -3.43143,-2.33840631 -4.12272,-2.57017561 -7.42671,-2.48459011 -2.00371,0.051893 -4.41303,0.2120248 -5.35366,0.3554883 -1.67157,0.2550154 -1.62801,0.3290866 1.91078,3.2844562 4.74276,3.9612758 10.16641,9.9617348 14.12699,15.6320398 2.44949,3.506966 2.87984,4.495858 5.75358,4.401162 z M 296.3167,11.54495 c 0.13963,0.0046 0.32643,-0.03537 0.56802,-0.10626 0.62171,-0.182467 5.76433,-1.632969 11.42795,-3.2245501 5.66338,-1.591591 10.39679,-2.9928503 10.51797,-3.1144327 0.12118,-0.1212263 -0.43766,-3.3123614 -1.2423,-7.0905465 -1.57296,-7.3860102 -1.92391,-7.8081112 -5.45218,-6.5495735 -0.86291,0.3078584 -3.17357,1.0142749 -5.1334,1.5688098 -3.12575,0.8844326 -3.79615,1.3729583 -5.46572,3.9838394 -1.84077,2.87845937 -4.46007,9.2169181 -5.34978,12.9445946 -0.27751,1.162635 -0.28942,1.574478 0.12944,1.588119 z"
       id="path3132"
       inkscape:connector-curvature="0" /><path
       style="color:#000000;font-style:normal;font-variant:normal;font-weight:normal;font-stretch:normal;font-size:medium;line-height:normal;font-family:sans-serif;text-indent:0;text-align:start;text-decoration:none;text-decoration-line:none;text-decoration-style:solid;text-decoration-color:#000000;letter-spacing:normal;word-spacing:normal;text-transform:none;direction:ltr;block-progression:tb;writing-mode:lr-tb;baseline-shift:baseline;text-anchor:start;white-space:normal;clip-rule:nonzero;display:inline;overflow:visible;visibility:visible;opacity:1;isolation:auto;mix-blend-mode:normal;color-interpolation:sRGB;color-interpolation-filters:linearRGB;solid-color:#000000;solid-opacity:1;fill:#000000;fill-opacity:1;fill-rule:nonzero;stroke:none;stroke-width:2.4000001;stroke-linecap:round;stroke-linejoin:round;stroke-miterlimit:4;stroke-dasharray:none;stroke-dashoffset:0;stroke-opacity:1;color-rendering:auto;image-rendering:auto;shape-rendering:auto;text-rendering:auto;enable-background:accumulate"
       d="m 335.97547,156.57848 c -46.97965,0 -85.0793,-38.55933 -85.0793,-86.064629 0,-47.505296 38.09965,-86.064632 85.0793,-86.064632 46.97966,0 85.0793,38.559336 85.0793,86.064632 0,47.505299 -38.09964,86.064629 -85.0793,86.064629 z m 0,-2.96807 c 45.35694,0 82.11122,-37.17638 82.11122,-83.096559 0,-45.920181 -36.75428,-83.096554 -82.11122,-83.096554 -45.35693,0 -82.11122,37.176373 -82.11122,83.096554 0,45.920179 36.75429,83.096559 82.11122,83.096559 z"
       id="path5037"
       inkscape:connector-curvature="0" /></g></svg>
