<?xml version="1.0" encoding="UTF-8" standalone="no"?>
<!-- Created with Inkscape (http://www.inkscape.org/) -->

<svg
   xmlns:dc="http://purl.org/dc/elements/1.1/"
   xmlns:cc="http://creativecommons.org/ns#"
   xmlns:rdf="http://www.w3.org/1999/02/22-rdf-syntax-ns#"
   xmlns:svg="http://www.w3.org/2000/svg"
   xmlns="http://www.w3.org/2000/svg"
   xmlns:sodipodi="http://sodipodi.sourceforge.net/DTD/sodipodi-0.dtd"
   xmlns:inkscape="http://www.inkscape.org/namespaces/inkscape"
   id="svg2"
   version="1.1"
   inkscape:version="0.91 r13725"
   xml:space="preserve"
   width="500"
   height="200"
   viewBox="0 0 499.99998 200"
   sodipodi:docname="floppy.svg"><metadata
     id="metadata8"><rdf:RDF><cc:Work
         rdf:about=""><dc:format>image/svg+xml</dc:format><dc:type
           rdf:resource="http://purl.org/dc/dcmitype/StillImage" /><dc:title></dc:title></cc:Work></rdf:RDF></metadata><defs
     id="defs6"><clipPath
       clipPathUnits="userSpaceOnUse"
       id="clipPath16"><path
         d="m 0,595.275 841.89,0 L 841.89,0 0,0 0,595.275 Z"
         id="path18"
         inkscape:connector-curvature="0" /></clipPath><clipPath
       clipPathUnits="userSpaceOnUse"
       id="clipPath138"><path
         d="m 290.118,321.389 260.888,0 0,-197.5 -260.888,0 0,197.5 z"
         id="path140"
         inkscape:connector-curvature="0" /></clipPath><linearGradient
       x1="0"
       y1="0"
       x2="1"
       y2="0"
       gradientUnits="userSpaceOnUse"
       gradientTransform="matrix(260.66611,-200.00023,-200.00023,-260.66611,295.34863,318.71045)"
       spreadMethod="pad"
       id="linearGradient146"><stop
         style="stop-opacity:1;stop-color:#ffffff"
         offset="0"
         id="stop148" /><stop
         style="stop-opacity:1;stop-color:#231f20"
         offset="1"
         id="stop150" /></linearGradient><clipPath
       clipPathUnits="userSpaceOnUse"
       id="clipPath188"><path
         d="m 327.29,485.137 190.669,0 0,-125 -190.669,0 0,125 z"
         id="path190"
         inkscape:connector-curvature="0" /></clipPath><linearGradient
       x1="0"
       y1="0"
       x2="1"
       y2="0"
       gradientUnits="userSpaceOnUse"
       gradientTransform="matrix(-163.99989,122.00018,122.00018,163.99989,519.92187,353.24805)"
       spreadMethod="pad"
       id="linearGradient196"><stop
         style="stop-opacity:1;stop-color:#ffffff"
         offset="0"
         id="stop198" /><stop
         style="stop-opacity:1;stop-color:#231f20"
         offset="1"
         id="stop200" /></linearGradient></defs><sodipodi:namedview
     pagecolor="#ffffff"
     bordercolor="#000000"
     borderopacity="1"
     objecttolerance="10"
     gridtolerance="10"
     guidetolerance="10"
     inkscape:pageopacity="0"
     inkscape:pageshadow="2"
     inkscape:window-width="1304"
     inkscape:window-height="745"
     id="namedview4"
     showgrid="false"
     inkscape:zoom="1.7738772"
     inkscape:cx="403.09052"
     inkscape:cy="-7.4845806"
     inkscape:window-x="54"
     inkscape:window-y="-8"
     inkscape:window-maximized="1"
     inkscape:current-layer="g10"
     inkscape:showpageshadow="false"
     borderlayer="true" /><g
     id="g10"
     inkscape:groupmode="layer"
     inkscape:label="Floppy disk"
     transform="matrix(1.25,0,0,-1.25,0,200)"><g
       id="g20"
       transform="matrix(0.4197537,0.16172207,-0.16172207,0.4197537,358.13281,61.002556)"><path
         d="M 0,0 C -0.07,-0.027 -0.141,-0.051 -0.211,-0.077 -0.141,-0.051 -0.07,-0.027 0,0"
         style="fill:#302c2d;fill-opacity:1;fill-rule:nonzero;stroke:none"
         id="path22"
         inkscape:connector-curvature="0" /></g><g
       id="g24"
       transform="matrix(0.4197537,0.16172207,-0.16172207,0.4197537,357.67102,60.629743)"><path
         d="M 0,0 C -0.107,-0.028 -0.213,-0.058 -0.322,-0.083 -0.213,-0.057 -0.107,-0.029 0,0"
         style="fill:#302c2d;fill-opacity:1;fill-rule:nonzero;stroke:none"
         id="path26"
         inkscape:connector-curvature="0" /></g><g
       id="g28"
       transform="matrix(0.4197537,0.16172207,-0.16172207,0.4197537,357.15263,60.298895)"><path
         d="M 0,0 C -0.115,-0.017 -0.23,-0.04 -0.35,-0.054 -0.23,-0.04 -0.117,-0.017 0,0"
         style="fill:#302c2d;fill-opacity:1;fill-rule:nonzero;stroke:none"
         id="path30"
         inkscape:connector-curvature="0" /></g><g
       id="g32"
       transform="matrix(0.4197537,0.16172207,-0.16172207,0.4197537,265.79938,26.100227)"
       style="fill:#000000;fill-opacity:1"><path
         d="m 0,0 41.523,0 c -3.069,2.173 -5.079,5.745 -5.079,9.792 l 0,113 -10.776,0 0,-2.392 -30.736,0 -5.629,-6 -2.201,0 L -13,11 C -13,4.373 -6.627,0 0,0"
         style="fill:#000000;fill-opacity:1;fill-rule:nonzero;stroke:none"
         id="path34"
         inkscape:connector-curvature="0" /></g><g
       id="g36"
       transform="matrix(0.4197537,0.16172207,-0.16172207,0.4197537,357.72904,60.545223)"><path
         d="M 0,0 C -0.156,-0.036 -0.313,-0.07 -0.473,-0.1 -0.313,-0.071 -0.156,-0.036 0,0"
         style="fill:#302c2d;fill-opacity:1;fill-rule:nonzero;stroke:none"
         id="path38"
         inkscape:connector-curvature="0" /></g><g
       id="g40"
       transform="matrix(0.4197537,0.16172207,-0.16172207,0.4197537,357.22047,60.240046)"><path
         d="M 0,0 C -0.105,-0.012 -0.211,-0.023 -0.316,-0.033 -0.211,-0.023 -0.105,-0.012 0,0"
         style="fill:#302c2d;fill-opacity:1;fill-rule:nonzero;stroke:none"
         id="path42"
         inkscape:connector-curvature="0" /></g><g
       id="g44"
       transform="matrix(0.4197537,0.16172207,-0.16172207,0.4197537,358.72862,61.638342)"><path
         d="m 0,0 c -0.184,-0.107 -0.367,-0.212 -0.555,-0.31 0.002,0.001 0.004,0.002 0.008,0.003 0.328,0.049 0.654,0.108 0.975,0.182 0.633,0.373 1.23,0.799 1.783,1.278 C 1.875,0.863 1.527,0.587 1.162,0.335 0.783,0.204 0.395,0.093 0,0"
         style="fill:#302c2d;fill-opacity:1;fill-rule:nonzero;stroke:none"
         id="path46"
         inkscape:connector-curvature="0" /></g><g
       id="g48"
       transform="matrix(0.4197537,0.16172207,-0.16172207,0.4197537,359.82413,64.080741)"><path
         d="M 0,0 C 0.035,0.06 0.074,0.118 0.107,0.178 0.074,0.118 0.035,0.06 0,0"
         style="fill:#302c2d;fill-opacity:1;fill-rule:nonzero;stroke:none"
         id="path50"
         inkscape:connector-curvature="0" /></g><g
       id="g52"
       transform="matrix(0.4197537,0.16172207,-0.16172207,0.4197537,359.88465,65.470654)"><path
         d="M 0,0 C 0.033,0.12 0.063,0.242 0.092,0.363 0.063,0.242 0.033,0.12 0,0"
         style="fill:#302c2d;fill-opacity:1;fill-rule:nonzero;stroke:none"
         id="path54"
         inkscape:connector-curvature="0" /></g><g
       id="g56"
       transform="matrix(0.4197537,0.16172207,-0.16172207,0.4197537,359.78343,66.124378)"><path
         d="M 0,0 C 0.021,0.137 0.045,0.271 0.063,0.41 0.045,0.271 0.021,0.136 0,0"
         style="fill:#302c2d;fill-opacity:1;fill-rule:nonzero;stroke:none"
         id="path58"
         inkscape:connector-curvature="0" /></g><g
       id="g60"
       transform="matrix(0.4197537,0.16172207,-0.16172207,0.4197537,359.97678,66.172311)"><path
         d="M 0,0 C -0.049,-0.318 -0.107,-0.634 -0.18,-0.944 -0.107,-0.634 -0.049,-0.319 0,0"
         style="fill:#302c2d;fill-opacity:1;fill-rule:nonzero;stroke:none"
         id="path62"
         inkscape:connector-curvature="0" /></g><g
       id="g64"
       transform="matrix(0.4197537,0.16172207,-0.16172207,0.4197537,358.16417,60.872238)"><path
         d="M 0,0 C -0.176,-0.061 -0.355,-0.117 -0.537,-0.169 -0.355,-0.117 -0.178,-0.06 0,0"
         style="fill:#302c2d;fill-opacity:1;fill-rule:nonzero;stroke:none"
         id="path66"
         inkscape:connector-curvature="0" /></g><g
       id="g68"
       transform="matrix(0.4197537,0.16172207,-0.16172207,0.4197537,359.92486,63.641006)"><path
         d="M 0,0 C -0.219,-0.302 -0.449,-0.594 -0.695,-0.873 -0.449,-0.593 -0.219,-0.302 0,0"
         style="fill:#302c2d;fill-opacity:1;fill-rule:nonzero;stroke:none"
         id="path70"
         inkscape:connector-curvature="0" /></g><g
       id="g72"
       transform="matrix(0.4197537,0.16172207,-0.16172207,0.4197537,360.06582,64.345423)"><path
         d="M 0,0 C -0.217,-0.404 -0.459,-0.792 -0.719,-1.167 -0.459,-0.792 -0.217,-0.404 0,0"
         style="fill:#302c2d;fill-opacity:1;fill-rule:nonzero;stroke:none"
         id="path74"
         inkscape:connector-curvature="0" /></g><g
       id="g76"
       transform="matrix(0.4197537,0.16172207,-0.16172207,0.4197537,359.74719,66.956388)"><path
         d="M 0,0 C 0,-0.471 -0.035,-0.934 -0.088,-1.391 -0.035,-0.934 0,-0.471 0,0"
         style="fill:#302c2d;fill-opacity:1;fill-rule:nonzero;stroke:none"
         id="path78"
         inkscape:connector-curvature="0" /></g><g
       id="g80"
       transform="matrix(0.4197537,0.16172207,-0.16172207,0.4197537,360.07803,65.543038)"><path
         d="M 0,0 C -0.086,-0.31 -0.186,-0.613 -0.295,-0.912 -0.186,-0.613 -0.086,-0.31 0,0"
         style="fill:#302c2d;fill-opacity:1;fill-rule:nonzero;stroke:none"
         id="path82"
         inkscape:connector-curvature="0" /></g><g
       id="g84"
       transform="matrix(0.4197537,0.16172207,-0.16172207,0.4197537,360.10511,64.937492)"><path
         d="M 0,0 C -0.162,-0.401 -0.34,-0.794 -0.543,-1.173 -0.34,-0.794 -0.162,-0.402 0,0"
         style="fill:#302c2d;fill-opacity:1;fill-rule:nonzero;stroke:none"
         id="path86"
         inkscape:connector-curvature="0" /></g><g
       id="g88"
       transform="matrix(0.4197537,0.16172207,-0.16172207,0.4197537,359.6736,63.442726)"><path
         d="M 0,0 C 0.027,0.036 0.055,0.072 0.082,0.108 0.055,0.072 0.027,0.035 0,0"
         style="fill:#302c2d;fill-opacity:1;fill-rule:nonzero;stroke:none"
         id="path90"
         inkscape:connector-curvature="0" /></g><g
       id="g92"
       transform="matrix(0.4197537,0.16172207,-0.16172207,0.4197537,358.69625,61.382769)"><path
         d="M 0,0 C -0.391,-0.197 -0.797,-0.37 -1.211,-0.524 -0.797,-0.371 -0.393,-0.197 0,0"
         style="fill:#302c2d;fill-opacity:1;fill-rule:nonzero;stroke:none"
         id="path94"
         inkscape:connector-curvature="0" /></g><g
       id="g96"
       transform="matrix(0.4197537,0.16172207,-0.16172207,0.4197537,359.72338,63.02998)"><path
         d="M 0,0 C -0.244,-0.264 -0.5,-0.518 -0.768,-0.759 -0.5,-0.517 -0.244,-0.265 0,0"
         style="fill:#302c2d;fill-opacity:1;fill-rule:nonzero;stroke:none"
         id="path98"
         inkscape:connector-curvature="0" /></g><g
       id="g100"
       transform="matrix(0.4197537,0.16172207,-0.16172207,0.4197537,358.92771,61.654357)"><path
         d="M 0,0 C -0.221,-0.129 -0.445,-0.252 -0.676,-0.368 -0.445,-0.252 -0.221,-0.13 0,0"
         style="fill:#302c2d;fill-opacity:1;fill-rule:nonzero;stroke:none"
         id="path102"
         inkscape:connector-curvature="0" /></g><g
       id="g108"
       transform="matrix(0.4197537,0.16172207,-0.16172207,0.4197537,359.74341,66.306459)"><path
         d="m 0,0 c -0.018,-0.138 -0.041,-0.273 -0.063,-0.41 -0.056,-0.364 -0.13,-0.721 -0.22,-1.074 -0.03,-0.121 -0.059,-0.243 -0.092,-0.363 -0.27,-0.938 -0.65,-1.827 -1.129,-2.656 -0.033,-0.06 -0.072,-0.119 -0.107,-0.179 -0.229,-0.379 -0.475,-0.744 -0.741,-1.095 -0.027,-0.036 -0.054,-0.072 -0.082,-0.108 -0.933,-1.199 -2.086,-2.214 -3.402,-2.988 0.395,0.093 0.783,0.205 1.162,0.335 0.365,0.252 0.713,0.528 1.049,0.818 0.066,0.058 0.131,0.12 0.197,0.18 0.268,0.242 0.524,0.495 0.768,0.759 0.07,0.078 0.142,0.155 0.211,0.234 0.246,0.279 0.476,0.571 0.695,0.873 0.045,0.061 0.092,0.12 0.137,0.182 0.26,0.374 0.502,0.763 0.719,1.166 0.005,0.008 0.007,0.016 0.011,0.024 0.203,0.379 0.381,0.772 0.543,1.173 0.049,0.12 0.09,0.244 0.133,0.366 0.109,0.299 0.209,0.602 0.295,0.912 0.039,0.146 0.078,0.294 0.113,0.442 0.073,0.31 0.131,0.626 0.18,0.944 0.019,0.14 0.047,0.278 0.062,0.419 0.053,0.457 0.088,0.92 0.088,1.391 L 0.131,105.941 0.1,114.47 0.1,1.47 C 0.1,0.971 0.059,0.483 0,0"
         style="fill:#272324;fill-opacity:1;fill-rule:nonzero;stroke:none"
         id="path110"
         inkscape:connector-curvature="0" /></g><path
       d="m 427.98925,-18.94198 -7.55556,-2.910997 -2.3715,6.155268 7.55557,2.910997 2.37149,-6.155268 z m -135.73995,-52.297683 -7.55557,-2.910997 -2.37181,6.156107 7.55556,2.910998 2.37182,-6.156108 z m -56.05812,133.548762 6.23271,-6.450291 -1.62947,-0.272517 1.73399,-4.500599 -3.50494,-1.35038 -1.73399,4.5006 -1.39066,-0.891073 0.29236,8.96426 z m 128.38215,61.040071 -6.00289,-2.31278 0.40915,-1.06198 -12.90155,-4.97069 -1.39246,-3.42885 -2.02027,-0.77837 17.08196,-43.839938 c 0.0762,-0.197704 0.13636,-0.39771 0.18802,-0.598109 0.0163,-0.06219 0.0272,-0.124485 0.0413,-0.186065 0.0315,-0.141664 0.0576,-0.283428 0.0775,-0.425196 0.009,-0.06837 0.0164,-0.136376 0.0238,-0.204387 0.0139,-0.143612 0.0215,-0.287228 0.0237,-0.430523 0.002,-0.05816 0.004,-0.116425 0.004,-0.174558 -0.003,-0.19494 -0.0141,-0.38869 -0.0381,-0.580606 -5.5e-4,-0.0036 -1e-4,-0.0073 -0.001,-0.01159 -0.0258,-0.204674 -0.0646,-0.406675 -0.11308,-0.60613 -0.009,-0.0333 -0.0192,-0.06525 -0.0281,-0.09855 -0.0427,-0.162021 -0.0926,-0.321527 -0.15054,-0.478841 -0.0158,-0.04416 -0.0335,-0.08812 -0.0509,-0.131926 -0.0596,-0.150695 -0.12627,-0.297874 -0.1992,-0.442634 -0.0184,-0.03602 -0.0353,-0.0724 -0.054,-0.107577 -0.15424,-0.290333 -0.33635,-0.565857 -0.54174,-0.824796 -6.7e-4,-7.43e-4 -6.7e-4,-7.43e-4 -6.7e-4,-7.43e-4 -0.0713,-0.09015 -0.14604,-0.177744 -0.22424,-0.263793 -0.001,-0.0025 -0.004,-0.005 -0.007,-0.0076 -0.13311,-0.146248 -0.27455,-0.284621 -0.42358,-0.415796 -0.036,-0.0317 -0.0712,-0.06408 -0.10856,-0.09485 -0.0646,-0.05381 -0.13009,-0.106522 -0.19791,-0.158202 -0.0774,-0.05824 -0.15651,-0.114289 -0.23715,-0.168981 -0.0597,-0.04034 -0.11948,-0.08026 -0.18195,-0.118308 -0.10593,-0.0654 -0.21441,-0.127919 -0.32676,-0.186633 -0.042,-0.02244 -0.0847,-0.0442 -0.12731,-0.06496 -0.14442,-0.07059 -0.29055,-0.137974 -0.44208,-0.196356 L 264.77772,24.582097 c -2.78171,-1.071733 -5.90598,0.314671 -6.97771,3.096379 l -16.89482,43.97856 0.18763,0.07229 -1.35424,3.523705 -9.28705,-3.578101 c -2.7817,-1.071732 -4.16811,-4.196001 -3.09638,-6.977709 l 56.76413,-147.332709 c 1.07173,-2.781708 4.196,-4.168112 6.97771,-3.09638 l 9.10026,3.506135 -34.4468,89.4075377 c -1.07174,2.7817078 0.31383,5.9056533 3.09638,6.9777093 l 111.60243,42.998017 c 2.78171,1.071732 5.90598,-0.314672 6.97771,-3.09638 l 34.4468,-89.407538 9.42137,3.629852 c 2.78171,1.071732 4.16811,4.196002 3.09638,6.977709 l -54.19129,140.654846 -15.6269,7.43315 z"
       style="fill:#000000;fill-opacity:1;fill-rule:nonzero;stroke:none"
       id="path112"
       inkscape:connector-curvature="0" /><path
       d="m 331.49915,102.41135 -20.35889,-7.843841 15.7679,-40.925985 20.35889,7.843844 -15.7679,40.925982 z"
       style="fill:#000000;fill-opacity:1;fill-rule:nonzero;stroke:none"
       id="path118"
       inkscape:connector-curvature="0" /><g
       id="g120"
       transform="matrix(0.4197537,0.16172207,-0.16172207,0.4197537,411.81946,-27.385239)"
       style="stroke:#ffffff;stroke-width:1.7784489;stroke-miterlimit:4;stroke-dasharray:none;fill:#000000;fill-opacity:1"><path
         d="m 0,0 c 0,-5.965 -4.834,-10.801 -10.801,-10.801 l -239.287,0 c -5.965,0 -10.8,4.836 -10.8,10.801 l 0,175.9 c 0,5.963 4.834,10.799 10.8,10.799 l 239.287,0 C -4.836,186.699 0,181.863 0,175.9 L 0,0 Z m 2.494,200.449 -265.876,0 c -6.629,0 -12,-5.373 -12,-12 l 0,-213 289.876,0 0,213 c 0,6.627 -5.373,12 -12,12"
         style="fill:#000000;fill-opacity:1;fill-rule:nonzero;stroke:#ffffff;stroke-width:1.7784489;stroke-miterlimit:4;stroke-dasharray:none"
         id="path122"
         inkscape:connector-curvature="0" /></g><g
       id="g128"
       transform="matrix(0.4197537,0.16172207,-0.16172207,0.4197537,239.02357,49.735545)"
       style="fill:#ffffff"><path
         d="m 0,0 8.35,0 0,10.722 L 11.947,9.984 4.174,28.347 -3.598,9.984 0,10.722 0,0 Z"
         style="fill:#ffffff;fill-opacity:1;fill-rule:nonzero;stroke:none"
         id="path130"
         inkscape:connector-curvature="0" /></g><path
       d="m 377.71096,39.802571 -95.18922,-36.6743607 -0.16172,0.4197537 95.18922,36.674361 0.16172,-0.419754 z m 3.65897,-9.496928 -95.18923,-36.6743602 -0.16172,0.4197537 95.18922,36.6743605 0.16173,-0.419754 z m 3.65896,-9.496927 -95.18923,-36.674361 -0.16172,0.419754 95.18923,36.674361 0.16172,-0.419754 z m 3.65896,-9.496927 -95.18923,-36.674361 -0.16172,0.419754 95.18923,36.67436 0.16172,-0.419753 z m 3.65896,-9.4969279 -95.18922,-36.6743611 -0.16173,0.419754 95.18923,36.6743608 0.16172,-0.4197537 z m 3.65896,-9.4969275 -95.18922,-36.6743606 -0.16172,0.419754 95.18922,36.6743603 0.16172,-0.4197537 z m 3.65896,-9.4969276 -95.18922,-36.674361 -0.16172,0.419754 95.18922,36.674361 0.16172,-0.419754 z m 3.65897,-9.496927 -95.18923,-36.674361 -0.16172,0.419754 95.18922,36.67436 0.16173,-0.419753 z M 377.09231,49.235823 276.65071,10.537834 c -2.50425,-0.9648341 -3.75125,-3.7765275 -2.7869,-6.2795188 L 302.31088,-69.57678 c 0.96451,-2.503411 3.77611,-3.751414 6.27994,-2.786742 l 100.4416,38.697989 c 2.50467,0.964996 3.75167,3.776689 2.78716,6.2801 l -28.44707,73.835096 c -0.96435,2.502991 -3.77637,3.750832 -6.2802,2.78616"
       style="fill:none;fill-opacity:1;fill-rule:nonzero;stroke:none"
       id="path132"
       inkscape:connector-curvature="0" /><path
       d="m 282.52174,3.1282103 95.18922,36.6743607 -0.16172,0.419754 -95.18922,-36.674361 0.16172,-0.4197537 z"
       style="fill:#000000;fill-opacity:1;fill-rule:nonzero;stroke:none"
       id="path166"
       inkscape:connector-curvature="0" /><path
       d="m 286.1807,-6.3687172 95.18923,36.6743602 -0.16173,0.419754 -95.18922,-36.6743605 0.16172,-0.4197537 z"
       style="fill:#000000;fill-opacity:1;fill-rule:nonzero;stroke:none"
       id="path168"
       inkscape:connector-curvature="0" /><path
       d="m 289.83966,-15.865645 95.18923,36.674361 -0.16172,0.419754 -95.18923,-36.674361 0.16172,-0.419754 z"
       style="fill:#000000;fill-opacity:1;fill-rule:nonzero;stroke:none"
       id="path170"
       inkscape:connector-curvature="0" /><path
       d="m 293.49862,-25.362572 95.18923,36.674361 -0.16172,0.419753 -95.18923,-36.67436 0.16172,-0.419754 z"
       style="fill:#000000;fill-opacity:1;fill-rule:nonzero;stroke:none"
       id="path172"
       inkscape:connector-curvature="0" /><path
       d="m 297.15759,-34.8595 95.18922,36.6743611 -0.16172,0.4197537 -95.18923,-36.6743608 0.16173,-0.419754 z"
       style="fill:#000000;fill-opacity:1;fill-rule:nonzero;stroke:none"
       id="path174"
       inkscape:connector-curvature="0" /><path
       d="m 300.81655,-44.356427 95.18922,36.6743606 -0.16172,0.4197537 -95.18922,-36.6743603 0.16172,-0.419754 z"
       style="fill:#000000;fill-opacity:1;fill-rule:nonzero;stroke:none"
       id="path176"
       inkscape:connector-curvature="0" /><path
       d="m 304.47551,-53.853355 95.18922,36.674361 -0.16172,0.419754 -95.18922,-36.674361 0.16172,-0.419754 z"
       style="fill:#000000;fill-opacity:1;fill-rule:nonzero;stroke:none"
       id="path178"
       inkscape:connector-curvature="0" /><path
       d="m 308.13447,-63.350282 95.18923,36.674361 -0.16173,0.419753 -95.18922,-36.67436 0.16172,-0.419754 z"
       style="fill:#000000;fill-opacity:1;fill-rule:nonzero;stroke:none"
       id="path180"
       inkscape:connector-curvature="0" /><path
       d="m 311.14026,94.567509 20.35889,7.843841 15.7679,-40.925982 -20.35889,-7.843844 -15.7679,40.925985 z M 283.22889,32.815587 c 1.04561,-0.265288 2.17924,-0.224781 3.2622,0.192462 l 69.95993,26.954056 c 0.19519,0.0752 0.38252,0.163283 0.56358,0.257627 0.0477,0.02512 0.0922,0.05337 0.13818,0.07927 0.13673,0.07678 0.26874,0.157048 0.39632,0.243804 0.0421,0.02828 0.0814,0.05786 0.12174,0.08692 0.13423,0.09703 0.26268,0.199062 0.3856,0.306678 0.0258,0.02198 0.0513,0.04337 0.0763,0.06602 0.14528,0.132142 0.28404,0.269964 0.4133,0.416178 0.0627,0.07138 0.1229,0.145209 0.18241,0.219718 0.42765,0.537877 0.74722,1.149811 0.9452,1.804564 0.006,0.01906 0.011,0.03896 0.017,0.05859 0.0546,0.189771 0.0993,0.382926 0.13354,0.579305 0.005,0.03085 0.012,0.0615 0.0161,0.09202 0.067,0.42544 0.0831,0.860217 0.0442,1.297869 -0.005,0.05545 -0.0127,0.111769 -0.0201,0.167249 -0.0191,0.162309 -0.046,0.324548 -0.0809,0.486556 -0.0132,0.06048 -0.0249,0.121031 -0.0403,0.182126 -0.0532,0.211863 -0.11506,0.423753 -0.19576,0.63321 l -18.27459,47.432166 -8.4e-4,-3.2e-4 -3.5507,-1.36801 -76.48248,-29.467053 18.27459,-47.432168 c 0.65465,-1.699163 2.07587,-2.873042 3.71551,-3.288842"
       style="fill:none;fill-opacity:1;fill-rule:nonzero;stroke:#000000;stroke-opacity:1"
       id="path182"
       inkscape:connector-curvature="0" /></g></svg>
