<?xml version="1.0" encoding="UTF-8" standalone="no"?>
<!-- Created with Inkscape (http://www.inkscape.org/) -->

<svg
   xmlns:dc="http://purl.org/dc/elements/1.1/"
   xmlns:cc="http://creativecommons.org/ns#"
   xmlns:rdf="http://www.w3.org/1999/02/22-rdf-syntax-ns#"
   xmlns:svg="http://www.w3.org/2000/svg"
   xmlns="http://www.w3.org/2000/svg"
   xmlns:sodipodi="http://sodipodi.sourceforge.net/DTD/sodipodi-0.dtd"
   xmlns:inkscape="http://www.inkscape.org/namespaces/inkscape"
   id="svg2"
   version="1.1"
   inkscape:version="0.91 r13725"
   xml:space="preserve"
   width="500"
   height="200"
   viewBox="0 0 499.99998 200"
   sodipodi:docname="hard-drive.svg"><metadata
     id="metadata8"><rdf:RDF><cc:Work
         rdf:about=""><dc:format>image/svg+xml</dc:format><dc:type
           rdf:resource="http://purl.org/dc/dcmitype/StillImage" /><dc:title></dc:title></cc:Work></rdf:RDF></metadata><defs
     id="defs6"><clipPath
       clipPathUnits="userSpaceOnUse"
       id="clipPath16"><path
         d="m 0,595.275 841.89,0 L 841.89,0 0,0 0,595.275 Z"
         id="path18"
         inkscape:connector-curvature="0" /></clipPath><clipPath
       clipPathUnits="userSpaceOnUse"
       id="clipPath138"><path
         d="m 290.118,321.389 260.888,0 0,-197.5 -260.888,0 0,197.5 z"
         id="path140"
         inkscape:connector-curvature="0" /></clipPath><linearGradient
       x1="0"
       y1="0"
       x2="1"
       y2="0"
       gradientUnits="userSpaceOnUse"
       gradientTransform="matrix(260.66611,-200.00023,-200.00023,-260.66611,295.34863,318.71045)"
       spreadMethod="pad"
       id="linearGradient146"><stop
         style="stop-opacity:1;stop-color:#ffffff"
         offset="0"
         id="stop148" /><stop
         style="stop-opacity:1;stop-color:#231f20"
         offset="1"
         id="stop150" /></linearGradient><clipPath
       clipPathUnits="userSpaceOnUse"
       id="clipPath188"><path
         d="m 327.29,485.137 190.669,0 0,-125 -190.669,0 0,125 z"
         id="path190"
         inkscape:connector-curvature="0" /></clipPath><linearGradient
       x1="0"
       y1="0"
       x2="1"
       y2="0"
       gradientUnits="userSpaceOnUse"
       gradientTransform="matrix(-163.99989,122.00018,122.00018,163.99989,519.92187,353.24805)"
       spreadMethod="pad"
       id="linearGradient196"><stop
         style="stop-opacity:1;stop-color:#ffffff"
         offset="0"
         id="stop198" /><stop
         style="stop-opacity:1;stop-color:#231f20"
         offset="1"
         id="stop200" /></linearGradient></defs><sodipodi:namedview
     pagecolor="#ffffff"
     bordercolor="#000000"
     borderopacity="1"
     objecttolerance="10"
     gridtolerance="10"
     guidetolerance="10"
     inkscape:pageopacity="0"
     inkscape:pageshadow="2"
     inkscape:window-width="1304"
     inkscape:window-height="745"
     id="namedview4"
     showgrid="false"
     inkscape:zoom="1.7738772"
     inkscape:cx="403.09052"
     inkscape:cy="70.686023"
     inkscape:window-x="54"
     inkscape:window-y="-8"
     inkscape:window-maximized="1"
     inkscape:current-layer="g10"
     inkscape:showpageshadow="false"
     borderlayer="true" /><g
     id="g10"
     inkscape:groupmode="layer"
     inkscape:label="Floppy disk"
     transform="matrix(1.25,0,0,-1.25,0,200)"><g
       id="g4657"
       transform="matrix(-0.33893284,-0.24895533,-0.24895533,0.33893284,489.63594,-20.078297)"><path
         d="m 315,192 a 143,143 0 1 0 -286,0 143,143 0 0 0 286,0 z m 6,0 a 149,149 0 0 1 -298,0 149,149 0 1 1 298,0 z"
         inkscape:connector-curvature="0"
         id="path4" /><path
         d="M 12,0 C 5.3726,0 0,5.3726 0,12 l 0,472 c 0,6.6274 5.3726,12 12,12 l 320,0 c 6.6274,0 12,-5.3726 12,-12 L 344,12 C 344,5.3726 338.63,0 332,0 l -16,0 c -2.2091,0 -4,1.7909 -4,4 l 0,18 -4,0 0,-16 c 0,-1.1046 -0.89544,-2 -2,-2 L 50,4 c -1.1046,0 -2,0.89544 -2,2 l 0,16 -4,0 0,-18 C 44,1.7909 42.209,0 40,0 Z m 2,30 c 2.2091,0 4,1.7909 4,4 0,2.2091 -1.7909,4 -4,4 -2.2091,0 -4,-1.7909 -4,-4 0,-2.2091 1.7909,-4 4,-4 z m 316,0 c 2.2091,0 4,1.7909 4,4 0,2.2091 -1.7909,4 -4,4 -2.2091,0 -4,-1.7909 -4,-4 0,-2.2091 1.7909,-4 4,-4 z m -158,2 c 88.366,0 160,71.634 160,160 0,24.982 -5.7782,48.616 -16,69.625 -12.778,26.262 -18.375,27.25 -18.375,31.25 0,13.24 38.38,3.13 38.38,27.13 l 0,96 c 0,6.6274 -5.3726,12 -12,12 -6.6274,0 -12,5.3726 -12,12 l 0,28 c 0,6.6274 -5.3726,12 -12,12 l -248,0 c -6.6274,0 -12,-5.3726 -12,-12 l 0,-80 c 0,-13.255 -10.745,-24 -24,-24 -2.2091,0 -4,-1.7909 -4,-4 l 0,-44 c 0,-4 0.63482,-5.9868 4,-8 39.775,-23.795 29.595,-9.9213 12,-46.375 -10.163,-21.05 -16,-44.64 -16,-69.62 0,-88.37 71.634,-160 160,-160 z m 0,104 c -30.928,0 -56,25.072 -56,56 0,30.928 25.072,56 56,56 30.928,0 56,-25.072 56,-56 0,-30.928 -25.072,-56 -56,-56 z m 0,8 c 4.4183,0 8,3.5817 8,8 0,4.4183 -3.5817,8 -8,8 -4.4183,0 -8,-3.5817 -8,-8 0,-4.4183 3.5817,-8 8,-8 z m -35,20 c 4.4183,0 8,3.5817 8,8 0,4.4183 -3.5817,8 -8,8 -4.4183,0 -8,-3.5817 -8,-8 0,-4.4183 3.5817,-8 8,-8 z m 70,0 c 4.4183,0 8,3.5817 8,8 0,4.4183 -3.5817,8 -8,8 -4.4183,0 -8,-3.5817 -8,-8 0,-4.4183 3.5817,-8 8,-8 z m -35,8 c 10.493,0 19,8.9543 19,20 0,11.0457 -8.5066,20 -19,20 -10.4934,0 -19,-8.9543 -19,-20 0,-11.0457 8.5066,-20 19,-20 z m -35,32 c 4.4183,0 8,3.5817 8,8 0,4.4183 -3.5817,8 -8,8 -4.4183,0 -8,-3.5817 -8,-8 0,-4.4183 3.5817,-8 8,-8 z m 70,0 c 4.4183,0 8,3.5817 8,8 0,4.4183 -3.5817,8 -8,8 -4.4183,0 -8,-3.5817 -8,-8 0,-4.4183 3.5817,-8 8,-8 z m -35,20 c 4.4183,0 8,3.5817 8,8 0,4.4183 -3.5817,8 -8,8 -4.4183,0 -8,-3.5817 -8,-8 0,-4.4183 3.5817,-8 8,-8 z m -44,128 c -2.1083,1.3151 -7.363,4.7588 -20.875,9.75 -6.7703,2.5009 -5.75,17.5 8.875,14.25 0,15.464 12.536,28 28,28 8.3202,0 16.802,-3.9322 22.25,-11.125 l 12.375,4.375 -6.5,15.875 c -0.56788,1.387 0.79228,2.2422 1.25,2.125 2.9464,6.2941 6.36,11.74 11,12.25 6.7558,0.74292 12.493,-10.436 20,-9.75 3.3019,0.3016 7.4512,2.9241 12.625,10.25 l -5,0 c -4.4183,0 -8,3.5817 -8,8 l 0,32 c 0,4.4183 3.5817,8 8,8 l 88,0 c 4.4183,0 8,-3.5817 8,-8 l 0,-8 -12,0 c -2.2091,0 -4,-1.7909 -4,-4 0,-2.2091 1.7909,-4 4,-4 l 12,0 0,-12 c 0,-22 24,-20 24,-40 0,-11.046 -8.9543,-20 -20,-20 -24,0 -14,28 -48,28 l -48,0 c -2.2091,0 -4,1.7909 -4,4 l 0,4 8,0 c 3.3137,0 6,2.6863 6,6 0,3.3137 -2.6863,6 -6,6 l -0.5,0 c -5.7235,-8.4798 -10.501,-11.938 -14.875,-12.25 -9.2582,-0.66136 -13.37,10.043 -20.125,9.75 -3.063,-0.1328 -6.5852,-4.9781 -9.625,-11.25 l 6.625,-15.875 c 1.2791,0.3776 2.2963,-0.318 2.625,-1.125 l 1.375,-3.375 c 0.49596,-1.2174 -0.38,-2.2545 -1.125,-2.625 l 10.87,-26.26 c 1.2622,0.1016 2.1389,-0.2696 2.5,-1.125 l 2.375,-5.625 c 0.63952,-1.5146 -0.45728,-2.3398 -1,-2.875 l 1,-2.25 c 0.79312,-1.7845 -1.9534,-3.2415 -2.75,-1.25 l -0.5,1.25 -1.25,-1.25 c 10.462,-22.72 23.074,-42.228 38.432,-61.633 l 2.1092,1.2202 2.6155,-3.0264 6.3008,-15.702 12.158,-15.597 -0.0418,-3.0101 4.5772,-5.2962 -3.0265,-2.6155 -4.5772,5.2962 -2.9844,0.39458 -13.671,14.289 -14.623,8.5092 -2.6155,3.0264 1.6071,2.0291 c -24.28,23.58 -49.66,44.64 -93.88,72.23 z M 14,278 c 2.2091,0 4,1.7909 4,4 0,2.2091 -1.7909,4 -4,4 -2.2091,0 -4,-1.7909 -4,-4 0,-2.2091 1.7909,-4 4,-4 z m 316,0 c 2.2091,0 4,1.7909 4,4 0,2.2091 -1.7909,4 -4,4 -2.2091,0 -4,-1.7909 -4,-4 0,-2.2091 1.7909,-4 4,-4 z m -36.375,18.875 c -0.3964,-0.01 -0.75544,0.0888 -1,0.375 -10.35,11.432 -17.486,18.086 -31.625,27.75 -0.60448,0.52948 -0.3836,1.5463 0,2 25.25,32.5 35,34 61,34 6,0 10,-4 10,-10 l 0,-18 -5.625,-5.375 c 2.24,-2.18 3.62,-5.24 3.62,-8.62 0,-6.6274 -5.3726,-12 -12,-12 -3.6646,0 -6.9239,1.6609 -9.125,4.25 l -14.25,-14 c -0.1696,-0.24836 -0.60352,-0.36556 -1,-0.375 z m -242.62,11.87 c -6.0941,0.13 -12.539,4.626 -10.125,14.375 3.8594,15.589 2.4597,13.627 -8.875,12.875 -13.079,-0.868 -16.858,16.635 0.875,21.75 6.4055,1.8475 13.087,10.37 12.875,19.625 -0.95359,41.675 19.01,43.974 14.25,62.625 -0.95355,3.736 -9.3845,8.5484 -12.875,13 -8.1317,10.371 4.9131,25.43 16.875,15 4.2637,-3.7176 11.373,-14.142 16.375,-11.5 29.998,15.849 50.024,19.196 81.5,14.25 6.09,-0.95692 5.3114,-1.7317 20.5,3.75 7.515,2.7122 21.05,4.096 15.875,-20.75 -6.2052,-29.794 -25.398,-18.632 -32.625,-17.375 -15.115,2.6286 -4.0213,-5.651 -22.125,-7.375 -34.925,-3.326 -57.664,-30.489 -50.375,-65.875 3.3736,-16.377 -18.684,-8.1662 -13,-18 7.568,-13.11 -2.749,-14.32 -16.14,-29.12 -4.46,-4.9298 -8.2601,-7.3511 -13,-7.25 z m 147,2.5 c 4.4183,0 8,3.5817 8,8 0,4.4183 -3.5817,8 -8,8 -4.4183,0 -8,-3.5817 -8,-8 0,-4.4183 3.5817,-8 8,-8 z m -146.75,1.5 c 3.866,0 7,3.134 7,7 0,3.866 -3.134,7 -7,7 -3.866,0 -7,-3.134 -7,-7 0,-3.866 3.134,-7 7,-7 z m 266.75,0.25 c 3.3137,0 6,2.6863 6,6 0,3.3137 -2.6863,6 -6,6 -3.3137,0 -6,-2.6863 -6,-6 0,-3.3137 2.6863,-6 6,-6 z m -136.38,16.25 c 2.044,-0.118 4.1005,0.53052 5.75,2 3.299,2.939 3.564,7.951 0.625,11.25 l -10.625,12 c -2.939,3.299 -7.951,3.564 -11.25,0.625 -3.299,-2.939 -3.564,-7.951 -0.625,-11.25 l 10.625,-12 c 1.4695,-1.6495 3.456,-2.507 5.5,-2.625 z m -151.38,11 c 2.7614,0 5,2.2386 5,5 0,2.7614 -2.2386,5 -5,5 -2.7614,0 -5,-2.2386 -5,-5 0,-2.7614 2.2386,-5 5,-5 z m 113.76,15.75 c 11.046,0 20,8.9543 20,20 0,11.0457 -8.9543,20 -20,20 -11.0457,0 -20,-8.9543 -20,-20 0,-11.0457 8.9543,-20 20,-20 z m 0,4 c -8.8366,0 -16,7.1634 -16,16 0,8.8366 7.1634,16 16,16 8.8366,0 16,-7.1634 16,-16 0,-8.8366 -7.1634,-16 -16,-16 z m 37,4 c 2.2091,0 4,1.7909 4,4 0,2.2091 -1.7909,4 -4,4 -2.2091,0 -4,-1.7909 -4,-4 0,-2.2091 1.7909,-4 4,-4 z m -70.625,0.1252 c 2.2091,0 4,1.7909 4,4 0,2.2091 -1.7909,4 -4,4 -2.2091,0 -4,-1.7909 -4,-4 0,-2.2091 1.7909,-4 4,-4 z m 81.5,1 -10,24.375 -10.625,-7 c 4.5873,-15.299 12.061,-0.73556 17,-13.5 0.48932,-1.2646 0.99844,-2.5011 1.5,-3.75 l 2.125,-0.1252 z m -39.88,10.87 c 0,4.4183 -3.5817,8 -8,8 -4.4183,0 -8,-3.5817 -8,-8 0,-4.4183 3.5817,-8 8,-8 4.4183,0 8,3.5817 8,8 z m -53.75,-7 c -1.25,0 -2.2511,2.1868 -2.25,7 0.004,26.528 21.521,48 48,48 4.9283,0 9.6495,-0.7454 14.125,-2.125 l 0,-3.125 c 4.3312,-3.9916 1.8016,-9.1548 -3,-9.75 l -1.75,-2.5 c -2.9724,0.91208 -6.1037,1.5 -9.375,1.5 -17.673,0 -29.805,-13.028 -31.875,-28.125 -4.6317,-0.304 -10.315,-1.7348 -12,-8.875 -0.3504,-1.4846 -1.125,-2 -1.875,-2 z m 215.5,22.25 c 3.866,0 7,3.134 7,7 0,3.866 -3.134,7 -7,7 -3.866,0 -7,-3.134 -7,-7 0,-3.866 3.134,-7 7,-7 z m -129,47.25 c 2.7614,0 5,2.2386 5,5 0,2.7614 -2.2386,5 -5,5 -2.7614,0 -5,-2.2386 -5,-5 0,-2.7614 2.2386,-5 5,-5 z m -129,14.5 c 3.866,0 7,3.134 7,7 0,3.866 -3.134,7 -7,7 -3.866,0 -7,-3.134 -7,-7 0,-3.866 3.134,-7 7,-7 z m 161.25,3 c 3.866,0 7,3.134 7,7 0,3.866 -3.134,7 -7,7 -3.866,0 -7,-3.134 -7,-7 0,-3.866 3.134,-7 7,-7 z m -28.25,3.5 c 3.866,0 7,3.134 7,7 0,3.866 -3.134,7 -7,7 -3.866,0 -7,-3.134 -7,-7 0,-3.866 3.134,-7 7,-7 z M 14,477.9902 c 2.2091,0 4,1.7909 4,4 0,2.2091 -1.7909,4 -4,4 -2.2091,0 -4,-1.7909 -4,-4 0,-2.2091 1.7909,-4 4,-4 z m 316,0 c 2.2091,0 4,1.7909 4,4 0,2.2091 -1.7909,4 -4,4 -2.2091,0 -4,-1.7909 -4,-4 0,-2.2091 1.7909,-4 4,-4 z"
         inkscape:connector-curvature="0"
         id="path6" /></g></g></svg>