<?xml version="1.0" encoding="UTF-8" standalone="no"?>
<!-- Created with Inkscape (http://www.inkscape.org/) -->

<svg
   xmlns:dc="http://purl.org/dc/elements/1.1/"
   xmlns:cc="http://creativecommons.org/ns#"
   xmlns:rdf="http://www.w3.org/1999/02/22-rdf-syntax-ns#"
   xmlns:svg="http://www.w3.org/2000/svg"
   xmlns="http://www.w3.org/2000/svg"
   xmlns:sodipodi="http://sodipodi.sourceforge.net/DTD/sodipodi-0.dtd"
   xmlns:inkscape="http://www.inkscape.org/namespaces/inkscape"
   id="svg2"
   version="1.1"
   inkscape:version="0.91 r13725"
   xml:space="preserve"
   width="500"
   height="200"
   viewBox="0 0 499.99998 200"
   sodipodi:docname="hypermedia.svg"><metadata
     id="metadata8"><rdf:RDF><cc:Work
         rdf:about=""><dc:format>image/svg+xml</dc:format><dc:type
           rdf:resource="http://purl.org/dc/dcmitype/StillImage" /><dc:title></dc:title></cc:Work></rdf:RDF></metadata><defs
     id="defs6"><clipPath
       clipPathUnits="userSpaceOnUse"
       id="clipPath16"><path
         d="m 0,595.275 841.89,0 L 841.89,0 0,0 0,595.275 Z"
         id="path18"
         inkscape:connector-curvature="0" /></clipPath><clipPath
       clipPathUnits="userSpaceOnUse"
       id="clipPath138"><path
         d="m 290.118,321.389 260.888,0 0,-197.5 -260.888,0 0,197.5 z"
         id="path140"
         inkscape:connector-curvature="0" /></clipPath><linearGradient
       x1="0"
       y1="0"
       x2="1"
       y2="0"
       gradientUnits="userSpaceOnUse"
       gradientTransform="matrix(260.66611,-200.00023,-200.00023,-260.66611,295.34863,318.71045)"
       spreadMethod="pad"
       id="linearGradient146"><stop
         style="stop-opacity:1;stop-color:#ffffff"
         offset="0"
         id="stop148" /><stop
         style="stop-opacity:1;stop-color:#231f20"
         offset="1"
         id="stop150" /></linearGradient><clipPath
       clipPathUnits="userSpaceOnUse"
       id="clipPath188"><path
         d="m 327.29,485.137 190.669,0 0,-125 -190.669,0 0,125 z"
         id="path190"
         inkscape:connector-curvature="0" /></clipPath><linearGradient
       x1="0"
       y1="0"
       x2="1"
       y2="0"
       gradientUnits="userSpaceOnUse"
       gradientTransform="matrix(-163.99989,122.00018,122.00018,163.99989,519.92187,353.24805)"
       spreadMethod="pad"
       id="linearGradient196"><stop
         style="stop-opacity:1;stop-color:#ffffff"
         offset="0"
         id="stop198" /><stop
         style="stop-opacity:1;stop-color:#231f20"
         offset="1"
         id="stop200" /></linearGradient></defs><sodipodi:namedview
     pagecolor="#ffffff"
     bordercolor="#000000"
     borderopacity="1"
     objecttolerance="10"
     gridtolerance="10"
     guidetolerance="10"
     inkscape:pageopacity="0"
     inkscape:pageshadow="2"
     inkscape:window-width="1304"
     inkscape:window-height="745"
     id="namedview4"
     showgrid="false"
     inkscape:zoom="1.2543206"
     inkscape:cx="404.22522"
     inkscape:cy="96.455938"
     inkscape:window-x="54"
     inkscape:window-y="-8"
     inkscape:window-maximized="1"
     inkscape:current-layer="g10"
     inkscape:showpageshadow="false"
     borderlayer="true" /><g
     id="g10"
     inkscape:groupmode="layer"
     inkscape:label="Floppy disk"
     transform="matrix(1.25,0,0,-1.25,0,200)"><path
       sodipodi:type="star"
       style="opacity:1;fill:#000000;fill-opacity:1;stroke:#ffffff;stroke-width:1.60000002;stroke-linecap:round;stroke-linejoin:round;stroke-miterlimit:4;stroke-dasharray:none;stroke-dashoffset:0;stroke-opacity:1"
       id="path6046"
       sodipodi:sides="7"
       sodipodi:cx="331.47728"
       sodipodi:cy="-67.648427"
       sodipodi:r1="91.240425"
       sodipodi:r2="47.445023"
       sodipodi:arg1="0.75743343"
       sodipodi:arg2="1.2062324"
       inkscape:flatsided="false"
       inkscape:rounded="0.55"
       inkscape:randomized="0"
       d="m 397.77275,-4.9608896 c -19.90773,21.0534986 -22.3083,-28.6915434 -49.37932,-18.3606364 -27.07101,10.330906 4.27987,49.027862 -24.59269,46.590013 -28.87255,-2.437849 8.52296,-35.330216 -16.43257,-50.053974 -24.95553,-14.723758 -35.66308,33.9145034 -51.75883,9.821058 -16.09576,-24.093447 32.93625,-15.364517 28.88822,-44.055649 -4.04802,-28.691131 -48.75099,-6.737167 -39.94951,-34.343354 8.80147,-27.606188 32.54788,16.170978 52.45561,-4.882518 19.90773,-21.0535 -25.12842,-42.31562 1.9426,-52.64652 27.07101,-10.33091 7.65029,35.52939 36.52284,37.96724 28.87256,2.43785 17.41637,-46.02954 42.3719,-31.30578 24.95553,14.72376 -23.00812,28.13345 -6.91236,52.2269 16.09575,24.093445 46.84627,-15.08228 50.89429,13.608848 4.04802,28.691132 -36.34095,-0.447553 -45.14243,27.158634 -8.80147,27.606187 40.99998,27.22224 21.09225,48.2757384 z"
       transform="scale(1,-1)" /><ellipse
       style="opacity:1;fill:#ffffff;fill-opacity:1;stroke:none;stroke-width:1.60000002;stroke-linecap:round;stroke-linejoin:round;stroke-miterlimit:4;stroke-dasharray:none;stroke-dashoffset:0;stroke-opacity:1"
       id="path6048"
       cx="331.88962"
       cy="-67.686829"
       transform="scale(1,-1)"
       rx="35.804451"
       ry="34.036324" /><path
       style="color:#000000;clip-rule:nonzero;display:inline;overflow:visible;visibility:visible;opacity:1;isolation:auto;mix-blend-mode:normal;color-interpolation:sRGB;color-interpolation-filters:linearRGB;solid-color:#000000;solid-opacity:1;fill:#000000;fill-opacity:1;fill-rule:evenodd;stroke:none;stroke-width:0.80000001px;stroke-linecap:butt;stroke-linejoin:miter;stroke-miterlimit:4;stroke-dasharray:none;stroke-dashoffset:0;stroke-opacity:1;color-rendering:auto;image-rendering:auto;shape-rendering:auto;text-rendering:auto;enable-background:accumulate"
       d="m 294.99747,68.749607 38.182,-7.808619 -28.36211,-25.684566 -0.29912,-2.086134 63.09681,32.166608 -36.90047,10.711729 32.45241,26.677215 -37.87701,2.52776 z"
       id="path6062"
       inkscape:connector-curvature="0"
       sodipodi:nodetypes="ccccccccc" /></g></svg>