<?xml version="1.0" encoding="UTF-8" standalone="no"?>
<!-- Created with Inkscape (http://www.inkscape.org/) -->

<svg
   xmlns:dc="http://purl.org/dc/elements/1.1/"
   xmlns:cc="http://creativecommons.org/ns#"
   xmlns:rdf="http://www.w3.org/1999/02/22-rdf-syntax-ns#"
   xmlns:svg="http://www.w3.org/2000/svg"
   xmlns="http://www.w3.org/2000/svg"
   xmlns:sodipodi="http://sodipodi.sourceforge.net/DTD/sodipodi-0.dtd"
   xmlns:inkscape="http://www.inkscape.org/namespaces/inkscape"
   id="svg2"
   version="1.1"
   inkscape:version="0.91 r13725"
   xml:space="preserve"
   width="500"
   height="200"
   viewBox="0 0 499.99998 200"
   sodipodi:docname="optical-disc.svg"><metadata
     id="metadata8"><rdf:RDF><cc:Work
         rdf:about=""><dc:format>image/svg+xml</dc:format><dc:type
           rdf:resource="http://purl.org/dc/dcmitype/StillImage" /><dc:title></dc:title></cc:Work></rdf:RDF></metadata><defs
     id="defs6"><clipPath
       clipPathUnits="userSpaceOnUse"
       id="clipPath16"><path
         d="m 0,595.275 841.89,0 L 841.89,0 0,0 0,595.275 Z"
         id="path18"
         inkscape:connector-curvature="0" /></clipPath><clipPath
       clipPathUnits="userSpaceOnUse"
       id="clipPath138"><path
         d="m 290.118,321.389 260.888,0 0,-197.5 -260.888,0 0,197.5 z"
         id="path140"
         inkscape:connector-curvature="0" /></clipPath><linearGradient
       x1="0"
       y1="0"
       x2="1"
       y2="0"
       gradientUnits="userSpaceOnUse"
       gradientTransform="matrix(260.66611,-200.00023,-200.00023,-260.66611,295.34863,318.71045)"
       spreadMethod="pad"
       id="linearGradient146"><stop
         style="stop-opacity:1;stop-color:#ffffff"
         offset="0"
         id="stop148" /><stop
         style="stop-opacity:1;stop-color:#231f20"
         offset="1"
         id="stop150" /></linearGradient><clipPath
       clipPathUnits="userSpaceOnUse"
       id="clipPath188"><path
         d="m 327.29,485.137 190.669,0 0,-125 -190.669,0 0,125 z"
         id="path190"
         inkscape:connector-curvature="0" /></clipPath><linearGradient
       x1="0"
       y1="0"
       x2="1"
       y2="0"
       gradientUnits="userSpaceOnUse"
       gradientTransform="matrix(-163.99989,122.00018,122.00018,163.99989,519.92187,353.24805)"
       spreadMethod="pad"
       id="linearGradient196"><stop
         style="stop-opacity:1;stop-color:#ffffff"
         offset="0"
         id="stop198" /><stop
         style="stop-opacity:1;stop-color:#231f20"
         offset="1"
         id="stop200" /></linearGradient></defs><sodipodi:namedview
     pagecolor="#ffffff"
     bordercolor="#000000"
     borderopacity="1"
     objecttolerance="10"
     gridtolerance="10"
     guidetolerance="10"
     inkscape:pageopacity="0"
     inkscape:pageshadow="2"
     inkscape:window-width="1304"
     inkscape:window-height="745"
     id="namedview4"
     showgrid="false"
     inkscape:zoom="0.6271603"
     inkscape:cx="403.09052"
     inkscape:cy="68.258326"
     inkscape:window-x="54"
     inkscape:window-y="-8"
     inkscape:window-maximized="1"
     inkscape:current-layer="g10"
     inkscape:showpageshadow="false"
     borderlayer="true" /><g
     id="g10"
     inkscape:groupmode="layer"
     inkscape:label="Floppy disk"
     transform="matrix(1.25,0,0,-1.25,0,200)"><path
       inkscape:connector-curvature="0"
       id="path1095"
       style="fill:none;stroke:#ffffff;stroke-width:6.5;stroke-linecap:round;stroke-linejoin:round"
       d="m 149.23338,123.57112 c 0,-11.1784 -9.072,-20.2504 -20.2504,-20.2504 -11.1784,0 -20.2504,9.072 -20.2504,20.2504 8e-5,11.1784 9.072,20.2504 20.2504,20.2504 11.1784,-8e-5 20.2504,-9.072 20.2504,-20.2504 z" /><g
       id="g4612"
       transform="matrix(0.34799322,-0.4317023,0.77854855,0.62758438,188.48128,175.19924)"><path
         inkscape:connector-curvature="0"
         id="path587"
         d="m 349.96728,-37.734476 c -47.16238,0 -85.54051,38.3751039 -85.54051,85.540509 -10e-4,47.16254 38.37789,85.540507 85.54051,85.540507 47.16548,-0.001 85.54051,-38.378167 85.54051,-85.540507 0,-47.1654051 -38.37514,-85.540509 -85.54051,-85.540509 z m 0,9.946571 c 41.78395,0 75.59394,33.8099059 75.59394,75.593938 0,41.78057 -33.81007,75.593017 -75.59394,75.593937 -41.78037,0 -75.59513,-33.813527 -75.59394,-75.593937 0,-41.7840321 33.81333,-75.593938 75.59394,-75.593938 z"
         style="color:#000000;font-style:normal;font-variant:normal;font-weight:normal;font-stretch:normal;font-size:medium;line-height:normal;font-family:sans-serif;text-indent:0;text-align:start;text-decoration:none;text-decoration-line:none;text-decoration-style:solid;text-decoration-color:#000000;letter-spacing:normal;word-spacing:normal;text-transform:none;direction:ltr;block-progression:tb;writing-mode:lr-tb;baseline-shift:baseline;text-anchor:start;white-space:normal;clip-rule:nonzero;display:inline;overflow:visible;visibility:visible;opacity:1;isolation:auto;mix-blend-mode:normal;color-interpolation:sRGB;color-interpolation-filters:linearRGB;solid-color:#000000;solid-opacity:1;fill:#000000;fill-opacity:1;fill-rule:evenodd;stroke:none;stroke-width:2.49999738;stroke-linecap:round;stroke-linejoin:round;stroke-miterlimit:4;stroke-dasharray:none;stroke-dashoffset:0;stroke-opacity:1;color-rendering:auto;image-rendering:auto;shape-rendering:auto;text-rendering:auto;enable-background:accumulate" /><path
         inkscape:connector-curvature="0"
         id="path588"
         d="m 349.96728,11.726399 c -19.86048,0 -36.07184,16.211359 -36.07184,36.071836 0,19.860478 16.21136,36.079635 36.07184,36.079635 19.86048,0 36.07963,-16.219157 36.07963,-36.079635 0,-19.860477 -16.21915,-36.071836 -36.07963,-36.071836 z m 0,9.946571 c 14.47946,0 26.13306,11.645803 26.13306,26.125265 0,14.479462 -11.6536,26.133064 -26.13306,26.133064 -14.47946,0 -26.12527,-11.653602 -26.12527,-26.133064 0,-14.479462 11.64581,-26.125265 26.12527,-26.125265 z"
         style="color:#000000;font-style:normal;font-variant:normal;font-weight:normal;font-stretch:normal;font-size:medium;line-height:normal;font-family:sans-serif;text-indent:0;text-align:start;text-decoration:none;text-decoration-line:none;text-decoration-style:solid;text-decoration-color:#000000;letter-spacing:normal;word-spacing:normal;text-transform:none;direction:ltr;block-progression:tb;writing-mode:lr-tb;baseline-shift:baseline;text-anchor:start;white-space:normal;clip-rule:nonzero;display:inline;overflow:visible;visibility:visible;opacity:1;isolation:auto;mix-blend-mode:normal;color-interpolation:sRGB;color-interpolation-filters:linearRGB;solid-color:#000000;solid-opacity:1;fill:#000000;fill-opacity:1;fill-rule:evenodd;stroke:none;stroke-width:2.49998546;stroke-linecap:round;stroke-linejoin:round;stroke-miterlimit:4;stroke-dasharray:none;stroke-dashoffset:0;stroke-opacity:1;color-rendering:auto;image-rendering:auto;shape-rendering:auto;text-rendering:auto;enable-background:accumulate" /><path
         inkscape:connector-curvature="0"
         id="path589"
         d="m 349.96728,28.138241 c -10.81785,0 -19.65999,8.83912 -19.65999,19.659994 0,10.818488 8.8415,19.660034 19.65999,19.660034 10.82087,0 19.66003,-8.842183 19.66003,-19.660034 0,-10.820238 -8.83975,-19.659994 -19.66003,-19.659994 z m 0,5.975701 c 7.59254,0 13.69209,6.091797 13.69209,13.684293 0,7.589115 -6.10019,13.692092 -13.69209,13.692092 -7.58848,0 -13.69205,-6.103614 -13.69205,-13.692092 0,-7.591859 6.10294,-13.684293 13.69205,-13.684293 z"
         style="color:#000000;font-style:normal;font-variant:normal;font-weight:normal;font-stretch:normal;font-size:medium;line-height:normal;font-family:sans-serif;text-indent:0;text-align:start;text-decoration:none;text-decoration-line:none;text-decoration-style:solid;text-decoration-color:#000000;letter-spacing:normal;word-spacing:normal;text-transform:none;direction:ltr;block-progression:tb;writing-mode:lr-tb;baseline-shift:baseline;text-anchor:start;white-space:normal;clip-rule:nonzero;display:inline;overflow:visible;visibility:visible;opacity:1;isolation:auto;mix-blend-mode:normal;color-interpolation:sRGB;color-interpolation-filters:linearRGB;solid-color:#000000;solid-opacity:1;fill:#000000;fill-opacity:1;fill-rule:evenodd;stroke:none;stroke-width:1.5000062;stroke-linecap:round;stroke-linejoin:round;stroke-miterlimit:4;stroke-dasharray:none;stroke-dashoffset:0;stroke-opacity:1;color-rendering:auto;image-rendering:auto;shape-rendering:auto;text-rendering:auto;enable-background:accumulate" /></g><path
       style="color:#000000;clip-rule:nonzero;display:inline;overflow:visible;visibility:visible;opacity:1;isolation:auto;mix-blend-mode:normal;color-interpolation:sRGB;color-interpolation-filters:linearRGB;solid-color:#000000;solid-opacity:1;fill:#000000;fill-opacity:1;fill-rule:evenodd;stroke:none;stroke-width:0.80000001px;stroke-linecap:butt;stroke-linejoin:miter;stroke-miterlimit:4;stroke-dasharray:none;stroke-dashoffset:0;stroke-opacity:1;color-rendering:auto;image-rendering:auto;shape-rendering:auto;text-rendering:auto;enable-background:accumulate"
       d="M 470.15625 55.683594 L 449.08398 101.87305 L 460.58984 106.58008 L 505.10742 61.884766 L 470.15625 55.683594 z M 409.43555 157.9375 L 363.04688 204.50977 L 399.68945 210.14648 L 421.96875 161.31055 L 409.43555 157.9375 z "
       transform="matrix(0.8,0,0,-0.8,-1.2207031e-5,160)"
       id="path4619" /><path
       style="color:#000000;font-style:normal;font-variant:normal;font-weight:normal;font-stretch:normal;font-size:medium;line-height:normal;font-family:sans-serif;text-indent:0;text-align:start;text-decoration:none;text-decoration-line:none;text-decoration-style:solid;text-decoration-color:#000000;letter-spacing:normal;word-spacing:normal;text-transform:none;direction:ltr;block-progression:tb;writing-mode:lr-tb;baseline-shift:baseline;text-anchor:start;white-space:normal;clip-rule:nonzero;display:inline;overflow:visible;visibility:visible;opacity:1;isolation:auto;mix-blend-mode:normal;color-interpolation:sRGB;color-interpolation-filters:linearRGB;solid-color:#000000;solid-opacity:1;fill:#000000;fill-opacity:1;fill-rule:evenodd;stroke:none;stroke-width:3.44000006;stroke-linecap:butt;stroke-linejoin:miter;stroke-miterlimit:4;stroke-dasharray:none;stroke-dashoffset:0;stroke-opacity:1;color-rendering:auto;image-rendering:auto;shape-rendering:auto;text-rendering:auto;enable-background:accumulate"
       d="m 459.68913,57.460644 -13.97777,42.757976 4.03196,0 16.78793,-43.779167 z m -39.73376,108.150816 -14.38701,40.3944 5.71855,-0.17559 14.11172,-41.91003 z"
       transform="matrix(0.8,0,0,-0.8,-1.2207031e-5,160)"
       id="path4627"
       inkscape:connector-curvature="0"
       sodipodi:nodetypes="cccccccccc" /><path
       style="color:#000000;font-style:normal;font-variant:normal;font-weight:normal;font-stretch:normal;font-size:medium;line-height:normal;font-family:sans-serif;text-indent:0;text-align:start;text-decoration:none;text-decoration-line:none;text-decoration-style:solid;text-decoration-color:#000000;letter-spacing:normal;word-spacing:normal;text-transform:none;direction:ltr;block-progression:tb;writing-mode:lr-tb;baseline-shift:baseline;text-anchor:start;white-space:normal;clip-rule:nonzero;display:inline;overflow:visible;visibility:visible;opacity:1;isolation:auto;mix-blend-mode:normal;color-interpolation:sRGB;color-interpolation-filters:linearRGB;solid-color:#000000;solid-opacity:1;fill:#000000;fill-opacity:1;fill-rule:evenodd;stroke:none;stroke-width:2.49999738;stroke-linecap:round;stroke-linejoin:round;stroke-miterlimit:4;stroke-dasharray:none;stroke-dashoffset:0;stroke-opacity:1;color-rendering:auto;image-rendering:auto;shape-rendering:auto;text-rendering:auto;enable-background:accumulate"
       d="M 454.42188 65.234375 C 424.09985 73.153546 397.3137 93.223654 377.39844 117.39258 C 364.26494 134.39332 352.01226 155.62157 355.625 178.01953 C 356.84894 185.71157 361.33238 191.78861 367.32227 195.96289 L 371.89258 191.55859 C 364.42184 185.77396 359.52277 176.7011 359.79492 166.89453 C 360.14146 140.27806 377.58301 117.40099 396.14062 100.02344 C 412.42354 85.619407 432.13653 72.942528 453.55273 68.207031 L 454.42188 65.234375 z M 501.60938 70.628906 L 496.89453 75.238281 C 502.04471 79.982619 505.59751 86.354405 506.21289 93.703125 C 508.39248 117.71862 493.94663 139.57483 478.49609 156.48633 C 461.72004 173.81434 440.66072 188.88495 417.23438 195.29883 L 416.54297 198.10938 C 447.66115 188.4076 474.86814 166.81929 494.04102 140.48242 C 505.447 123.74129 516.04484 102.23741 509.25391 81.640625 C 507.60925 77.112196 504.93633 73.481205 501.60938 70.628906 z "
       transform="matrix(0.8,0,0,-0.8,-1.2207031e-5,160)"
       id="path4636" /></g></svg>